# Blender 5.2.0 LTS
# www.blender.org
mtllib cannon.mtl
o Cube.001
v 0.320000 -1.100000 1.040000
v 0.320000 -0.900000 1.040000
v 0.320000 -1.100000 -0.960000
v 0.320000 -0.900000 -0.960000
v 0.520000 -1.100000 1.040000
v 0.520000 -0.900000 1.040000
v 0.520000 -1.100000 -0.960000
v 0.520000 -0.900000 -0.960000
vn -1.0000 -0.0000 -0.0000
vn -0.0000 -0.0000 -1.0000
vn 1.0000 -0.0000 -0.0000
vn -0.0000 -0.0000 1.0000
vn -0.0000 -1.0000 -0.0000
vn -0.0000 1.0000 -0.0000
vt 0.375000 0.000000
vt 0.625000 0.000000
vt 0.625000 0.250000
vt 0.375000 0.250000
vt 0.625000 0.500000
vt 0.375000 0.500000
vt 0.625000 0.750000
vt 0.375000 0.750000
vt 0.625000 1.000000
vt 0.375000 1.000000
vt 0.125000 0.500000
vt 0.125000 0.750000
vt 0.875000 0.500000
vt 0.875000 0.750000
s 1
f 1/1/1 2/2/1 4/3/1 3/4/1
f 3/4/2 4/3/2 8/5/2 7/6/2
f 7/6/3 8/5/3 6/7/3 5/8/3
f 5/8/4 6/7/4 2/9/4 1/10/4
f 3/11/5 7/6/5 5/8/5 1/12/5
f 8/5/6 4/13/6 2/14/6 6/7/6
o Cube.002
v -0.520000 -1.100000 1.040000
v -0.520000 -0.900000 1.040000
v -0.520000 -1.100000 -0.960000
v -0.520000 -0.900000 -0.960000
v -0.320000 -1.100000 1.040000
v -0.320000 -0.900000 1.040000
v -0.320000 -1.100000 -0.960000
v -0.320000 -0.900000 -0.960000
vn -1.0000 -0.0000 -0.0000
vn -0.0000 -0.0000 -1.0000
vn 1.0000 -0.0000 -0.0000
vn -0.0000 -0.0000 1.0000
vn -0.0000 -1.0000 -0.0000
vn -0.0000 1.0000 -0.0000
vt 0.375000 0.000000
vt 0.625000 0.000000
vt 0.625000 0.250000
vt 0.375000 0.250000
vt 0.625000 0.500000
vt 0.375000 0.500000
vt 0.625000 0.750000
vt 0.375000 0.750000
vt 0.625000 1.000000
vt 0.375000 1.000000
vt 0.125000 0.500000
vt 0.125000 0.750000
vt 0.875000 0.500000
vt 0.875000 0.750000
s 1
f 9/15/7 10/16/7 12/17/7 11/18/7
f 11/18/8 12/17/8 16/19/8 15/20/8
f 15/20/9 16/19/9 14/21/9 13/22/9
f 13/22/10 14/21/10 10/23/10 9/24/10
f 11/25/11 15/20/11 13/22/11 9/26/11
f 16/19/12 12/27/12 10/28/12 14/21/12
o Cylinder
v 0.000000 -0.530524 -0.409881
v 0.000000 0.054219 -2.322491
v 0.097545 -0.521336 -0.407072
v 0.097545 0.063407 -2.319682
v 0.191342 -0.494127 -0.398753
v 0.191342 0.090616 -2.311363
v 0.277785 -0.449941 -0.385244
v 0.277785 0.134802 -2.297854
v 0.353553 -0.390476 -0.367064
v 0.353553 0.194267 -2.279674
v 0.415735 -0.318019 -0.344912
v 0.415735 0.266724 -2.257521
v 0.461940 -0.235353 -0.319638
v 0.461940 0.349391 -2.232248
v 0.490393 -0.145655 -0.292215
v 0.490393 0.439089 -2.204824
v 0.500000 -0.052372 -0.263695
v 0.500000 0.532372 -2.176305
v 0.490393 0.040911 -0.235176
v 0.490393 0.625655 -2.147785
v 0.461940 0.130609 -0.207752
v 0.461940 0.715353 -2.120362
v 0.415735 0.213276 -0.182479
v 0.415735 0.798019 -2.095088
v 0.353553 0.285733 -0.160326
v 0.353553 0.870476 -2.072936
v 0.277785 0.345197 -0.142146
v 0.277785 0.929941 -2.054756
v 0.191342 0.389384 -0.128637
v 0.191342 0.974127 -2.041247
v 0.097545 0.416593 -0.120318
v 0.097545 1.001336 -2.032928
v 0.000000 0.425781 -0.117509
v 0.000000 1.010524 -2.030119
v -0.097545 0.416593 -0.120318
v -0.097545 1.001336 -2.032928
v -0.191342 0.389384 -0.128637
v -0.191342 0.974127 -2.041247
v -0.277785 0.345197 -0.142146
v -0.277785 0.929941 -2.054756
v -0.353553 0.285733 -0.160326
v -0.353553 0.870476 -2.072936
v -0.415735 0.213276 -0.182479
v -0.415735 0.798019 -2.095088
v -0.461940 0.130609 -0.207752
v -0.461940 0.715353 -2.120362
v -0.490393 0.040911 -0.235176
v -0.490393 0.625655 -2.147785
v -0.500000 -0.052372 -0.263695
v -0.500000 0.532372 -2.176305
v -0.490393 -0.145655 -0.292215
v -0.490393 0.439089 -2.204824
v -0.461940 -0.235353 -0.319638
v -0.461940 0.349391 -2.232248
v -0.415735 -0.318019 -0.344912
v -0.415735 0.266724 -2.257521
v -0.353553 -0.390476 -0.367064
v -0.353553 0.194267 -2.279674
v -0.277785 -0.449941 -0.385244
v -0.277785 0.134802 -2.297854
v -0.191342 -0.494127 -0.398753
v -0.191342 0.090616 -2.311363
v -0.097545 -0.521336 -0.407072
v -0.097545 0.063407 -2.319682
vn -0.0000 -0.9563 -0.2924
vn 0.1951 -0.9379 -0.2868
vn 0.3827 -0.8835 -0.2701
vn 0.5556 -0.7951 -0.2431
vn 0.7071 -0.6762 -0.2067
vn 0.8315 -0.5313 -0.1624
vn 0.9239 -0.3660 -0.1119
vn 0.9808 -0.1866 -0.0570
vn 1.0000 -0.0000 -0.0000
vn 0.9808 0.1866 0.0570
vn 0.9239 0.3660 0.1119
vn 0.8315 0.5313 0.1624
vn 0.7071 0.6762 0.2067
vn 0.5556 0.7951 0.2431
vn 0.3827 0.8835 0.2701
vn 0.1951 0.9379 0.2868
vn -0.0000 0.9563 0.2924
vn -0.1951 0.9379 0.2868
vn -0.3827 0.8835 0.2701
vn -0.5556 0.7951 0.2431
vn -0.7071 0.6762 0.2067
vn -0.8315 0.5313 0.1624
vn -0.9239 0.3660 0.1119
vn -0.9808 0.1866 0.0570
vn -1.0000 -0.0000 -0.0000
vn -0.9808 -0.1866 -0.0570
vn -0.9239 -0.3660 -0.1119
vn -0.8315 -0.5313 -0.1624
vn -0.7071 -0.6762 -0.2067
vn -0.5556 -0.7951 -0.2431
vn -0.3827 -0.8835 -0.2701
vn -0.0000 0.2924 -0.9563
vn -0.1951 -0.9379 -0.2868
vn -0.0000 -0.2924 0.9563
vt 1.000000 0.500000
vt 1.000000 1.000000
vt 0.968750 1.000000
vt 0.968750 0.500000
vt 0.937500 1.000000
vt 0.937500 0.500000
vt 0.906250 1.000000
vt 0.906250 0.500000
vt 0.875000 1.000000
vt 0.875000 0.500000
vt 0.843750 1.000000
vt 0.843750 0.500000
vt 0.812500 1.000000
vt 0.812500 0.500000
vt 0.781250 1.000000
vt 0.781250 0.500000
vt 0.750000 1.000000
vt 0.750000 0.500000
vt 0.718750 1.000000
vt 0.718750 0.500000
vt 0.687500 1.000000
vt 0.687500 0.500000
vt 0.656250 1.000000
vt 0.656250 0.500000
vt 0.625000 1.000000
vt 0.625000 0.500000
vt 0.593750 1.000000
vt 0.593750 0.500000
vt 0.562500 1.000000
vt 0.562500 0.500000
vt 0.531250 1.000000
vt 0.531250 0.500000
vt 0.500000 1.000000
vt 0.500000 0.500000
vt 0.468750 1.000000
vt 0.468750 0.500000
vt 0.437500 1.000000
vt 0.437500 0.500000
vt 0.406250 1.000000
vt 0.406250 0.500000
vt 0.375000 1.000000
vt 0.375000 0.500000
vt 0.343750 1.000000
vt 0.343750 0.500000
vt 0.312500 1.000000
vt 0.312500 0.500000
vt 0.281250 1.000000
vt 0.281250 0.500000
vt 0.250000 1.000000
vt 0.250000 0.500000
vt 0.218750 1.000000
vt 0.218750 0.500000
vt 0.187500 1.000000
vt 0.187500 0.500000
vt 0.156250 1.000000
vt 0.156250 0.500000
vt 0.125000 1.000000
vt 0.125000 0.500000
vt 0.093750 1.000000
vt 0.093750 0.500000
vt 0.062500 1.000000
vt 0.062500 0.500000
vt 0.296822 0.485388
vt 0.250000 0.490000
vt 0.203178 0.485388
vt 0.158156 0.471731
vt 0.116663 0.449553
vt 0.080294 0.419706
vt 0.050447 0.383337
vt 0.028269 0.341844
vt 0.014612 0.296822
vt 0.010000 0.250000
vt 0.014612 0.203178
vt 0.028269 0.158156
vt 0.050447 0.116663
vt 0.080294 0.080294
vt 0.116663 0.050447
vt 0.158156 0.028269
vt 0.203178 0.014612
vt 0.250000 0.010000
vt 0.296822 0.014612
vt 0.341844 0.028269
vt 0.383337 0.050447
vt 0.419706 0.080294
vt 0.449553 0.116663
vt 0.471731 0.158156
vt 0.485388 0.203178
vt 0.490000 0.250000
vt 0.485388 0.296822
vt 0.471731 0.341844
vt 0.449553 0.383337
vt 0.419706 0.419706
vt 0.383337 0.449553
vt 0.341844 0.471731
vt 0.031250 1.000000
vt 0.031250 0.500000
vt 0.000000 1.000000
vt 0.000000 0.500000
vt 0.750000 0.490000
vt 0.796822 0.485388
vt 0.841844 0.471731
vt 0.883337 0.449553
vt 0.919706 0.419706
vt 0.949553 0.383337
vt 0.971731 0.341844
vt 0.985388 0.296822
vt 0.990000 0.250000
vt 0.985388 0.203178
vt 0.971731 0.158156
vt 0.949553 0.116663
vt 0.919706 0.080294
vt 0.883337 0.050447
vt 0.841844 0.028269
vt 0.796822 0.014612
vt 0.750000 0.010000
vt 0.703178 0.014612
vt 0.658156 0.028269
vt 0.616663 0.050447
vt 0.580294 0.080294
vt 0.550447 0.116663
vt 0.528269 0.158156
vt 0.514612 0.203178
vt 0.510000 0.250000
vt 0.514612 0.296822
vt 0.528269 0.341844
vt 0.550447 0.383337
vt 0.580294 0.419706
vt 0.616663 0.449553
vt 0.658156 0.471731
vt 0.703178 0.485388
s 1
f 17/29/13 18/30/13 20/31/14 19/32/14
f 19/32/14 20/31/14 22/33/15 21/34/15
f 21/34/15 22/33/15 24/35/16 23/36/16
f 23/36/16 24/35/16 26/37/17 25/38/17
f 25/38/17 26/37/17 28/39/18 27/40/18
f 27/40/18 28/39/18 30/41/19 29/42/19
f 29/42/19 30/41/19 32/43/20 31/44/20
f 31/44/20 32/43/20 34/45/21 33/46/21
f 33/46/21 34/45/21 36/47/22 35/48/22
f 35/48/22 36/47/22 38/49/23 37/50/23
f 37/50/23 38/49/23 40/51/24 39/52/24
f 39/52/24 40/51/24 42/53/25 41/54/25
f 41/54/25 42/53/25 44/55/26 43/56/26
f 43/56/26 44/55/26 46/57/27 45/58/27
f 45/58/27 46/57/27 48/59/28 47/60/28
f 47/60/28 48/59/28 50/61/29 49/62/29
f 49/62/29 50/61/29 52/63/30 51/64/30
f 51/64/30 52/63/30 54/65/31 53/66/31
f 53/66/31 54/65/31 56/67/32 55/68/32
f 55/68/32 56/67/32 58/69/33 57/70/33
f 57/70/33 58/69/33 60/71/34 59/72/34
f 59/72/34 60/71/34 62/73/35 61/74/35
f 61/74/35 62/73/35 64/75/36 63/76/36
f 63/76/36 64/75/36 66/77/37 65/78/37
f 65/78/37 66/77/37 68/79/38 67/80/38
f 67/80/38 68/79/38 70/81/39 69/82/39
f 69/82/39 70/81/39 72/83/40 71/84/40
f 71/84/40 72/83/40 74/85/41 73/86/41
f 73/86/41 74/85/41 76/87/42 75/88/42
f 75/88/42 76/87/42 78/89/43 77/90/43
f 20/91/44 18/92/44 80/93/44 78/94/44 76/95/44 74/96/44 72/97/44 70/98/44 68/99/44 66/100/44 64/101/44 62/102/44 60/103/44 58/104/44 56/105/44 54/106/44 52/107/44 50/108/44 48/109/44 46/110/44 44/111/44 42/112/44 40/113/44 38/114/44 36/115/44 34/116/44 32/117/44 30/118/44 28/119/44 26/120/44 24/121/44 22/122/44
f 77/90/43 78/89/43 80/123/45 79/124/45
f 79/124/45 80/123/45 18/125/13 17/126/13
f 17/127/46 19/128/46 21/129/46 23/130/46 25/131/46 27/132/46 29/133/46 31/134/46 33/135/46 35/136/46 37/137/46 39/138/46 41/139/46 43/140/46 45/141/46 47/142/46 49/143/46 51/144/46 53/145/46 55/146/46 57/147/46 59/148/46 61/149/46 63/150/46 65/151/46 67/152/46 69/153/46 71/154/46 73/155/46 75/156/46 77/157/46 79/158/46
o Plane
v -1.000000 -0.530000 -2.330000
v 1.000000 -0.530000 -2.330000
v -1.000000 1.470000 -2.330000
v 1.000000 1.470000 -2.330000
vn -0.0000 -0.0000 1.0000
vt 36.921875 3.339844
vt 37.921875 3.339844
vt 37.921875 4.339844
vt 36.921875 4.339844
s 1
f 81/159/47 82/160/47 84/161/47 83/162/47
o Sphere
v 0.000000 1.000000 -0.000000
v 0.000000 0.831470 -0.555570
v 0.000000 0.555570 -0.831470
v 0.000000 0.195090 -0.980785
v 0.000000 -0.000000 -1.000000
v 0.000000 -0.195090 -0.980785
v 0.000000 -0.555570 -0.831470
v 0.000000 -1.000000 0.000000
v 0.038060 0.980785 -0.191342
v 0.074658 0.923880 -0.375330
v 0.108386 0.831470 -0.544895
v 0.137950 0.707107 -0.693520
v 0.162212 0.555570 -0.815493
v 0.180240 0.382683 -0.906127
v 0.191342 0.195090 -0.961940
v 0.195090 -0.000000 -0.980785
v 0.191342 -0.195090 -0.961940
v 0.180240 -0.382683 -0.906127
v 0.162212 -0.555570 -0.815493
v 0.137950 -0.707107 -0.693520
v 0.108386 -0.831470 -0.544895
v 0.074658 -0.923880 -0.375330
v 0.038060 -0.980785 -0.191342
v 0.074658 0.980785 -0.180240
v 0.146447 0.923880 -0.353553
v 0.212608 0.831470 -0.513280
v 0.270598 0.707107 -0.653281
v 0.318190 0.555570 -0.768178
v 0.353553 0.382683 -0.853553
v 0.375330 0.195090 -0.906127
v 0.382683 -0.000000 -0.923879
v 0.375330 -0.195090 -0.906127
v 0.353553 -0.382683 -0.853553
v 0.318190 -0.555570 -0.768178
v 0.270598 -0.707107 -0.653281
v 0.212608 -0.831470 -0.513280
v 0.146447 -0.923880 -0.353553
v 0.074658 -0.980785 -0.180240
v 0.108386 0.980785 -0.162212
v 0.212608 0.923880 -0.318190
v 0.308658 0.831470 -0.461940
v 0.392847 0.707107 -0.587938
v 0.461940 0.555570 -0.691342
v 0.513280 0.382683 -0.768178
v 0.544895 0.195090 -0.815493
v 0.555570 -0.000000 -0.831469
v 0.544895 -0.195090 -0.815493
v 0.513280 -0.382683 -0.768178
v 0.461940 -0.555570 -0.691342
v 0.392847 -0.707107 -0.587938
v 0.308658 -0.831470 -0.461940
v 0.212608 -0.923880 -0.318190
v 0.108386 -0.980785 -0.162212
v 0.137950 0.980785 -0.137950
v 0.270598 0.923880 -0.270598
v 0.392847 0.831470 -0.392847
v 0.500000 0.707107 -0.500000
v 0.587938 0.555570 -0.587938
v 0.653281 0.382683 -0.653281
v 0.693520 0.195090 -0.693520
v 0.707107 -0.000000 -0.707107
v 0.693520 -0.195090 -0.693520
v 0.653281 -0.382683 -0.653281
v 0.587938 -0.555570 -0.587938
v 0.500000 -0.707107 -0.500000
v 0.392847 -0.831470 -0.392847
v 0.270598 -0.923880 -0.270598
v 0.137950 -0.980785 -0.137950
v 0.162212 0.980785 -0.108386
v 0.318190 0.923880 -0.212608
v 0.461940 0.831470 -0.308658
v 0.587938 0.707107 -0.392847
v 0.691342 0.555570 -0.461940
v 0.768178 0.382683 -0.513280
v 0.815493 0.195090 -0.544895
v 0.831470 -0.000000 -0.555570
v 0.815493 -0.195090 -0.544895
v 0.768178 -0.382683 -0.513280
v 0.691342 -0.555570 -0.461940
v 0.587938 -0.707107 -0.392847
v 0.461940 -0.831470 -0.308658
v 0.318190 -0.923880 -0.212608
v 0.162212 -0.980785 -0.108386
v 0.180240 0.980785 -0.074658
v 0.353553 0.923880 -0.146447
v 0.513280 0.831470 -0.212607
v 0.653281 0.707107 -0.270598
v 0.768178 0.555570 -0.318190
v 0.853553 0.382683 -0.353553
v 0.906127 0.195090 -0.375330
v 0.923879 -0.000000 -0.382683
v 0.906127 -0.195090 -0.375330
v 0.853553 -0.382683 -0.353553
v 0.768178 -0.555570 -0.318190
v 0.653281 -0.707107 -0.270598
v 0.513280 -0.831470 -0.212607
v 0.353553 -0.923880 -0.146447
v 0.180240 -0.980785 -0.074658
v 0.191342 0.980785 -0.038060
v 0.375330 0.923880 -0.074658
v 0.544895 0.831470 -0.108386
v 0.693520 0.707107 -0.137950
v 0.815493 0.555570 -0.162212
v 0.906127 0.382683 -0.180240
v 0.961940 0.195090 -0.191342
v 0.980785 -0.000000 -0.195090
v 0.961940 -0.195090 -0.191342
v 0.906127 -0.382683 -0.180240
v 0.815493 -0.555570 -0.162212
v 0.693520 -0.707107 -0.137950
v 0.544895 -0.831470 -0.108386
v 0.375330 -0.923880 -0.074658
v 0.191342 -0.980785 -0.038060
v 0.195090 0.980785 -0.000000
v 0.382683 0.923880 -0.000000
v 0.555570 0.831470 -0.000000
v 0.707107 0.707107 -0.000000
v 0.831469 0.555570 -0.000000
v 0.923879 0.382683 -0.000000
v 0.980785 0.195090 -0.000000
v 1.000000 0.000000 0.000000
v 0.980785 -0.195090 0.000000
v 0.923879 -0.382683 0.000000
v 0.831469 -0.555570 0.000000
v 0.707107 -0.707107 0.000000
v 0.555570 -0.831470 0.000000
v 0.382683 -0.923880 0.000000
v 0.195090 -0.980785 0.000000
v 0.191342 0.980785 0.038060
v 0.375330 0.923880 0.074658
v 0.544895 0.831470 0.108386
v 0.693520 0.707107 0.137950
v 0.815493 0.555570 0.162212
v 0.906127 0.382683 0.180240
v 0.961940 0.195090 0.191342
v 0.980785 0.000000 0.195090
v 0.961940 -0.195090 0.191342
v 0.906127 -0.382683 0.180240
v 0.815493 -0.555570 0.162212
v 0.693520 -0.707107 0.137950
v 0.544895 -0.831470 0.108386
v 0.375330 -0.923880 0.074658
v 0.191342 -0.980785 0.038060
v 0.180240 0.980785 0.074658
v 0.353553 0.923880 0.146447
v 0.513280 0.831470 0.212608
v 0.653281 0.707107 0.270598
v 0.768178 0.555570 0.318190
v 0.853553 0.382683 0.353553
v 0.906127 0.195090 0.375330
v 0.923879 0.000000 0.382683
v 0.906127 -0.195090 0.375330
v 0.853553 -0.382683 0.353553
v 0.768178 -0.555570 0.318190
v 0.653281 -0.707107 0.270598
v 0.513280 -0.831470 0.212608
v 0.353553 -0.923880 0.146447
v 0.180240 -0.980785 0.074658
v 0.162212 0.980785 0.108386
v 0.318190 0.923880 0.212608
v 0.461940 0.831470 0.308658
v 0.587938 0.707107 0.392847
v 0.691341 0.555570 0.461940
v 0.768178 0.382683 0.513280
v 0.815493 0.195090 0.544895
v 0.831469 0.000000 0.555570
v 0.815493 -0.195090 0.544895
v 0.768178 -0.382683 0.513280
v 0.691341 -0.555570 0.461940
v 0.587938 -0.707107 0.392847
v 0.461940 -0.831470 0.308658
v 0.318190 -0.923880 0.212608
v 0.162212 -0.980785 0.108386
v 0.137950 0.980785 0.137950
v 0.270598 0.923880 0.270598
v 0.392847 0.831470 0.392847
v 0.500000 0.707107 0.500000
v 0.587938 0.555570 0.587938
v 0.653281 0.382683 0.653281
v 0.693520 0.195090 0.693520
v 0.707106 0.000000 0.707107
v 0.693520 -0.195090 0.693520
v 0.653281 -0.382683 0.653281
v 0.587938 -0.555570 0.587938
v 0.500000 -0.707107 0.500000
v 0.392847 -0.831470 0.392847
v 0.270598 -0.923880 0.270598
v 0.137950 -0.980785 0.137950
v 0.108386 0.980785 0.162212
v 0.212607 0.923880 0.318190
v 0.308658 0.831470 0.461940
v 0.392847 0.707107 0.587938
v 0.461940 0.555570 0.691342
v 0.513280 0.382683 0.768178
v 0.544895 0.195090 0.815493
v 0.555570 0.000000 0.831469
v 0.544895 -0.195090 0.815493
v 0.513280 -0.382683 0.768178
v 0.461940 -0.555570 0.691342
v 0.392847 -0.707107 0.587938
v 0.308658 -0.831470 0.461940
v 0.212607 -0.923880 0.318190
v 0.108386 -0.980785 0.162212
v 0.074658 0.980785 0.180240
v 0.146447 0.923880 0.353553
v 0.212607 0.831470 0.513280
v 0.270598 0.707107 0.653281
v 0.318189 0.555570 0.768178
v 0.353553 0.382683 0.853553
v 0.375330 0.195090 0.906127
v 0.382683 0.000000 0.923879
v 0.375330 -0.195090 0.906127
v 0.353553 -0.382683 0.853553
v 0.318189 -0.555570 0.768178
v 0.270598 -0.707107 0.653281
v 0.212607 -0.831470 0.513280
v 0.146447 -0.923880 0.353553
v 0.074658 -0.980785 0.180240
v 0.038060 0.980785 0.191342
v 0.074658 0.923880 0.375330
v 0.108386 0.831470 0.544895
v 0.137950 0.707107 0.693520
v 0.162212 0.555570 0.815493
v 0.180240 0.382683 0.906127
v 0.191342 0.195090 0.961939
v 0.195090 0.000000 0.980785
v 0.191342 -0.195090 0.961939
v 0.180240 -0.382683 0.906127
v 0.162212 -0.555570 0.815493
v 0.137950 -0.707107 0.693520
v 0.108386 -0.831470 0.544895
v 0.074658 -0.923880 0.375330
v 0.038060 -0.980785 0.191342
v 0.000000 0.980785 0.195090
v 0.000000 0.923880 0.382683
v 0.000000 0.831470 0.555570
v 0.000000 0.707107 0.707107
v 0.000000 0.555570 0.831469
v 0.000000 0.382683 0.923879
v 0.000000 0.195090 0.980785
v 0.000000 0.000000 0.999999
v 0.000000 -0.195090 0.980785
v 0.000000 -0.382683 0.923879
v 0.000000 -0.555570 0.831469
v 0.000000 -0.707107 0.707107
v 0.000000 -0.831470 0.555570
v 0.000000 -0.923880 0.382683
v 0.000000 -0.980785 0.195090
v -0.038060 0.980785 0.191342
v -0.074658 0.923880 0.375330
v -0.108386 0.831470 0.544895
v -0.137950 0.707107 0.693520
v -0.162212 0.555570 0.815493
v -0.180240 0.382683 0.906127
v -0.191342 0.195090 0.961939
v -0.195091 0.000000 0.980785
v -0.191342 -0.195090 0.961939
v -0.180240 -0.382683 0.906127
v -0.162212 -0.555570 0.815493
v -0.137950 -0.707107 0.693520
v -0.108386 -0.831470 0.544895
v -0.074658 -0.923880 0.375330
v -0.038060 -0.980785 0.191342
v -0.074658 0.980785 0.180240
v -0.146447 0.923880 0.353553
v -0.212608 0.831470 0.513280
v -0.270598 0.707107 0.653281
v -0.318190 0.555570 0.768177
v -0.353553 0.382683 0.853553
v -0.375330 0.195090 0.906127
v -0.382683 0.000000 0.923879
v -0.375330 -0.195090 0.906127
v -0.353553 -0.382683 0.853553
v -0.318190 -0.555570 0.768177
v -0.270598 -0.707107 0.653281
v -0.212608 -0.831470 0.513280
v -0.146447 -0.923880 0.353553
v -0.074658 -0.980785 0.180240
v -0.108386 0.980785 0.162212
v -0.212608 0.923880 0.318190
v -0.308658 0.831470 0.461939
v -0.392847 0.707107 0.587938
v -0.461940 0.555570 0.691341
v -0.513280 0.382683 0.768178
v -0.544895 0.195090 0.815493
v -0.555570 0.000000 0.831469
v -0.544895 -0.195090 0.815493
v -0.513280 -0.382683 0.768178
v -0.461940 -0.555570 0.691341
v -0.392847 -0.707107 0.587938
v -0.308658 -0.831470 0.461939
v -0.212608 -0.923880 0.318190
v -0.108386 -0.980785 0.162212
v -0.137950 0.980785 0.137950
v -0.270598 0.923880 0.270598
v -0.392847 0.831470 0.392847
v -0.500000 0.707107 0.500000
v -0.587938 0.555570 0.587937
v -0.653281 0.382683 0.653281
v -0.693520 0.195090 0.693520
v -0.707106 0.000000 0.707106
v -0.693520 -0.195090 0.693520
v -0.653281 -0.382683 0.653281
v -0.587938 -0.555570 0.587937
v -0.500000 -0.707107 0.500000
v -0.392847 -0.831470 0.392847
v -0.270598 -0.923880 0.270598
v -0.137950 -0.980785 0.137950
v -0.162212 0.980785 0.108386
v -0.318190 0.923880 0.212607
v -0.461940 0.831470 0.308658
v -0.587938 0.707107 0.392847
v -0.691341 0.555570 0.461939
v -0.768177 0.382683 0.513280
v -0.815493 0.195090 0.544895
v -0.831469 0.000000 0.555569
v -0.815493 -0.195090 0.544895
v -0.768177 -0.382683 0.513280
v -0.691341 -0.555570 0.461939
v -0.587938 -0.707107 0.392847
v -0.461940 -0.831470 0.308658
v -0.318190 -0.923880 0.212607
v -0.162212 -0.980785 0.108386
v -0.180240 0.980785 0.074658
v -0.353553 0.923880 0.146447
v -0.513280 0.831470 0.212607
v -0.653281 0.707107 0.270598
v -0.768177 0.555570 0.318189
v -0.853553 0.382683 0.353553
v -0.906127 0.195090 0.375330
v -0.923879 0.000000 0.382683
v -0.906127 -0.195090 0.375330
v -0.853553 -0.382683 0.353553
v -0.768177 -0.555570 0.318189
v -0.653281 -0.707107 0.270598
v -0.513280 -0.831470 0.212607
v -0.353553 -0.923880 0.146447
v -0.180240 -0.980785 0.074658
v -0.191342 0.980785 0.038060
v -0.375330 0.923880 0.074658
v -0.544895 0.831470 0.108386
v -0.693520 0.707107 0.137950
v -0.815493 0.555570 0.162211
v -0.906127 0.382683 0.180240
v -0.961939 0.195090 0.191341
v -0.980784 0.000000 0.195090
v -0.961939 -0.195090 0.191341
v -0.906127 -0.382683 0.180240
v -0.815493 -0.555570 0.162211
v -0.693520 -0.707107 0.137950
v -0.544895 -0.831470 0.108386
v -0.375330 -0.923880 0.074658
v -0.191342 -0.980785 0.038060
v -0.195090 0.980785 -0.000000
v -0.382683 0.923880 -0.000000
v -0.555570 0.831470 -0.000000
v -0.707107 0.707107 -0.000000
v -0.831469 0.555570 -0.000000
v -0.923879 0.382683 -0.000000
v -0.980785 0.195090 -0.000000
v -0.999999 0.000000 0.000000
v -0.980785 -0.195090 0.000000
v -0.923879 -0.382683 0.000000
v -0.831469 -0.555570 0.000000
v -0.707107 -0.707107 0.000000
v -0.555570 -0.831470 0.000000
v -0.382683 -0.923880 0.000000
v -0.195090 -0.980785 0.000000
v -0.191342 0.980785 -0.038060
v -0.375330 0.923880 -0.074658
v -0.544895 0.831470 -0.108386
v -0.693520 0.707107 -0.137950
v -0.815493 0.555570 -0.162212
v -0.906127 0.382683 -0.180240
v -0.961939 0.195090 -0.191342
v -0.980784 -0.000000 -0.195091
v -0.961939 -0.195090 -0.191342
v -0.906127 -0.382683 -0.180240
v -0.815493 -0.555570 -0.162212
v -0.693520 -0.707107 -0.137950
v -0.544895 -0.831470 -0.108386
v -0.375330 -0.923880 -0.074658
v -0.191342 -0.980785 -0.038060
v -0.180240 0.980785 -0.074658
v -0.353553 0.923880 -0.146447
v -0.513279 0.831470 -0.212607
v -0.653281 0.707107 -0.270598
v -0.768177 0.555570 -0.318190
v -0.853553 0.382683 -0.353553
v -0.906127 0.195090 -0.375330
v -0.923878 -0.000000 -0.382683
v -0.906127 -0.195090 -0.375330
v -0.853553 -0.382683 -0.353553
v -0.768177 -0.555570 -0.318190
v -0.653281 -0.707107 -0.270598
v -0.513279 -0.831470 -0.212607
v -0.353553 -0.923880 -0.146447
v -0.180240 -0.980785 -0.074658
v -0.162212 0.980785 -0.108386
v -0.318189 0.923880 -0.212607
v -0.461939 0.831470 -0.308658
v -0.587938 0.707107 -0.392847
v -0.691341 0.555570 -0.461940
v -0.768177 0.382683 -0.513280
v -0.815493 0.195090 -0.544895
v -0.831468 -0.000000 -0.555570
v -0.815493 -0.195090 -0.544895
v -0.768177 -0.382683 -0.513280
v -0.691341 -0.555570 -0.461940
v -0.587938 -0.707107 -0.392847
v -0.461939 -0.831470 -0.308658
v -0.318189 -0.923880 -0.212607
v -0.162212 -0.980785 -0.108386
v -0.137950 0.980785 -0.137950
v -0.270598 0.923880 -0.270598
v -0.392847 0.831470 -0.392847
v -0.500000 0.707107 -0.500000
v -0.587937 0.555570 -0.587938
v -0.653281 0.382683 -0.653281
v -0.693519 0.195090 -0.693520
v -0.707106 -0.000000 -0.707106
v -0.693519 -0.195090 -0.693520
v -0.653281 -0.382683 -0.653281
v -0.587937 -0.555570 -0.587938
v -0.500000 -0.707107 -0.500000
v -0.392847 -0.831470 -0.392847
v -0.270598 -0.923880 -0.270598
v -0.137950 -0.980785 -0.137950
v -0.108386 0.980785 -0.162212
v -0.212607 0.923880 -0.318190
v -0.308658 0.831470 -0.461939
v -0.392847 0.707107 -0.587938
v -0.461939 0.555570 -0.691341
v -0.513280 0.382683 -0.768177
v -0.544895 0.195090 -0.815493
v -0.555569 -0.000000 -0.831469
v -0.544895 -0.195090 -0.815493
v -0.513280 -0.382683 -0.768177
v -0.461939 -0.555570 -0.691341
v -0.392847 -0.707107 -0.587938
v -0.308658 -0.831470 -0.461939
v -0.212607 -0.923880 -0.318190
v -0.108386 -0.980785 -0.162212
v -0.074658 0.980785 -0.180240
v -0.146446 0.923880 -0.353553
v -0.212607 0.831470 -0.513279
v -0.270598 0.707107 -0.653281
v -0.318189 0.555570 -0.768177
v -0.353553 0.382683 -0.853553
v -0.375330 0.195090 -0.906127
v -0.382683 -0.000000 -0.923879
v -0.375330 -0.195090 -0.906127
v -0.353553 -0.382683 -0.853553
v -0.318189 -0.555570 -0.768177
v -0.270598 -0.707107 -0.653281
v -0.212607 -0.831470 -0.513279
v -0.146446 -0.923880 -0.353553
v -0.074658 -0.980785 -0.180240
v -0.038060 0.980785 -0.191342
v -0.074658 0.923880 -0.375330
v -0.108386 0.831470 -0.544895
v -0.137950 0.707107 -0.693520
v -0.162211 0.555570 -0.815493
v -0.180240 0.382683 -0.906127
v -0.191341 0.195090 -0.961939
v -0.195090 -0.000000 -0.980784
v -0.191341 -0.195090 -0.961939
v -0.180240 -0.382683 -0.906127
v -0.162211 -0.555570 -0.815493
v -0.137950 -0.707107 -0.693520
v -0.108386 -0.831470 -0.544895
v -0.074658 -0.923880 -0.375330
v -0.038060 -0.980785 -0.191342
v 0.000000 0.980785 -0.195090
v 0.000000 0.923880 -0.382683
v 0.000000 0.707107 -0.707107
v 0.000000 0.382683 -0.923879
v 0.000000 -0.382683 -0.923879
v 0.000000 -0.707107 -0.707107
v 0.000000 -0.831470 -0.555570
v 0.000000 -0.923880 -0.382683
v 0.000000 -0.980785 -0.195090
vn -0.0000 -0.3805 -0.9248
vn -0.0000 -0.1939 -0.9810
vn 0.1914 -0.1939 -0.9622
vn 0.1804 -0.3805 -0.9070
vn -0.0000 0.8286 -0.5598
vn -0.0000 0.9217 -0.3879
vn 0.0757 0.9217 -0.3804
vn 0.1092 0.8286 -0.5490
vn -0.0000 -0.5528 -0.8333
vn 0.1626 -0.5528 -0.8173
vn -0.0000 0.7041 -0.7101
vn 0.1385 0.7041 -0.6965
vn -0.0000 -0.7041 -0.7101
vn 0.1385 -0.7041 -0.6965
vn -0.0000 0.5528 -0.8333
vn 0.1626 0.5528 -0.8173
vn -0.0000 -0.8286 -0.5598
vn 0.1092 -0.8286 -0.5490
vn -0.0000 0.3805 -0.9248
vn 0.1804 0.3805 -0.9070
vn -0.0000 -0.9217 -0.3879
vn 0.0757 -0.9217 -0.3804
vn -0.0000 0.1939 -0.9810
vn 0.1914 0.1939 -0.9622
vn -0.0000 -0.9796 -0.2010
vn 0.0392 -0.9796 -0.1971
vn -0.0000 -0.0000 -1.0000
vn 0.1951 -0.0000 -0.9808
vn -0.0000 0.9796 -0.2010
vn -0.0000 1.0000 -0.0000
vn 0.0392 0.9796 -0.1971
vn -0.0000 -1.0000 -0.0000
vn 0.3827 -0.0000 -0.9239
vn 0.3754 -0.1939 -0.9063
vn 0.0769 0.9796 -0.1857
vn 0.1484 0.9217 -0.3584
vn 0.3539 -0.3805 -0.8544
vn 0.2142 0.8286 -0.5172
vn 0.3189 -0.5528 -0.7699
vn 0.2718 0.7041 -0.6561
vn 0.2718 -0.7041 -0.6561
vn 0.3189 0.5528 -0.7699
vn 0.2142 -0.8286 -0.5172
vn 0.3539 0.3805 -0.8544
vn 0.1484 -0.9217 -0.3584
vn 0.3754 0.1939 -0.9063
vn 0.0769 -0.9796 -0.1857
vn 0.3945 -0.7041 -0.5905
vn 0.3110 -0.8286 -0.4654
vn 0.4630 0.5528 -0.6929
vn 0.5138 0.3805 -0.7689
vn 0.2155 -0.9217 -0.3225
vn 0.5450 0.1939 -0.8157
vn 0.1116 -0.9796 -0.1671
vn 0.5556 -0.0000 -0.8315
vn 0.1116 0.9796 -0.1671
vn 0.5450 -0.1939 -0.8157
vn 0.2155 0.9217 -0.3225
vn 0.5138 -0.3805 -0.7689
vn 0.3110 0.8286 -0.4654
vn 0.4630 -0.5528 -0.6929
vn 0.3945 0.7041 -0.5905
vn 0.1421 0.9796 -0.1421
vn 0.2743 0.9217 -0.2743
vn 0.6937 -0.1939 -0.6937
vn 0.6539 -0.3805 -0.6539
vn 0.3958 0.8286 -0.3958
vn 0.5893 -0.5528 -0.5893
vn 0.5021 0.7041 -0.5021
vn 0.5021 -0.7041 -0.5021
vn 0.5893 0.5528 -0.5893
vn 0.3958 -0.8286 -0.3958
vn 0.6539 0.3805 -0.6539
vn 0.2743 -0.9217 -0.2743
vn 0.6937 0.1939 -0.6937
vn 0.1421 -0.9796 -0.1421
vn 0.7071 -0.0000 -0.7071
vn 0.6929 0.5528 -0.4630
vn 0.7689 0.3805 -0.5138
vn 0.4654 -0.8286 -0.3110
vn 0.3225 -0.9217 -0.2155
vn 0.8157 0.1939 -0.5450
vn 0.1671 -0.9796 -0.1116
vn 0.8315 -0.0000 -0.5556
vn 0.1671 0.9796 -0.1116
vn 0.8157 -0.1939 -0.5450
vn 0.3225 0.9217 -0.2155
vn 0.7689 -0.3805 -0.5138
vn 0.4654 0.8286 -0.3110
vn 0.6929 -0.5528 -0.4630
vn 0.5905 0.7041 -0.3945
vn 0.5905 -0.7041 -0.3945
vn 0.9063 -0.1939 -0.3754
vn 0.8544 -0.3805 -0.3539
vn 0.3584 0.9217 -0.1484
vn 0.5172 0.8286 -0.2142
vn 0.7699 -0.5528 -0.3189
vn 0.6561 0.7041 -0.2718
vn 0.6561 -0.7041 -0.2718
vn 0.7699 0.5528 -0.3189
vn 0.5172 -0.8286 -0.2142
vn 0.8544 0.3805 -0.3539
vn 0.3584 -0.9217 -0.1484
vn 0.9063 0.1939 -0.3754
vn 0.1857 -0.9796 -0.0769
vn 0.9239 -0.0000 -0.3827
vn 0.1857 0.9796 -0.0769
vn 0.5490 -0.8286 -0.1092
vn 0.3804 -0.9217 -0.0757
vn 0.9070 0.3805 -0.1804
vn 0.9622 0.1939 -0.1914
vn 0.1971 -0.9796 -0.0392
vn 0.9808 -0.0000 -0.1951
vn 0.1971 0.9796 -0.0392
vn 0.9622 -0.1939 -0.1914
vn 0.3804 0.9217 -0.0757
vn 0.9070 -0.3805 -0.1804
vn 0.5490 0.8286 -0.1092
vn 0.8173 -0.5528 -0.1626
vn 0.6965 0.7041 -0.1385
vn 0.6965 -0.7041 -0.1385
vn 0.8173 0.5528 -0.1626
vn 0.9248 -0.3805 -0.0000
vn 0.8333 -0.5528 -0.0000
vn 0.5598 0.8286 -0.0000
vn 0.7101 0.7041 -0.0000
vn 0.7101 -0.7041 -0.0000
vn 0.8333 0.5528 -0.0000
vn 0.5598 -0.8286 -0.0000
vn 0.9248 0.3805 -0.0000
vn 0.3879 -0.9217 -0.0000
vn 0.9810 0.1939 -0.0000
vn 0.2010 -0.9796 -0.0000
vn 1.0000 -0.0000 -0.0000
vn 0.2010 0.9796 -0.0000
vn 0.9810 -0.1939 -0.0000
vn 0.3879 0.9217 -0.0000
vn 0.3804 -0.9217 0.0757
vn 0.1971 -0.9796 0.0392
vn 0.9622 0.1939 0.1914
vn 0.9808 -0.0000 0.1951
vn 0.1971 0.9796 0.0392
vn 0.9622 -0.1939 0.1914
vn 0.3804 0.9217 0.0757
vn 0.9070 -0.3805 0.1804
vn 0.5490 0.8286 0.1092
vn 0.8173 -0.5528 0.1626
vn 0.6965 0.7041 0.1385
vn 0.6965 -0.7041 0.1385
vn 0.8173 0.5528 0.1626
vn 0.5490 -0.8286 0.1092
vn 0.9070 0.3805 0.1804
vn 0.5172 0.8286 0.2142
vn 0.6561 0.7041 0.2718
vn 0.7699 -0.5528 0.3189
vn 0.6561 -0.7041 0.2718
vn 0.7699 0.5528 0.3189
vn 0.5172 -0.8286 0.2142
vn 0.8544 0.3805 0.3539
vn 0.3584 -0.9217 0.1484
vn 0.9063 0.1939 0.3754
vn 0.1857 -0.9796 0.0769
vn 0.9239 -0.0000 0.3827
vn 0.1857 0.9796 0.0769
vn 0.9063 -0.1939 0.3754
vn 0.3584 0.9217 0.1484
vn 0.8544 -0.3805 0.3539
vn 0.8157 0.1939 0.5450
vn 0.8315 -0.0000 0.5556
vn 0.1671 0.9796 0.1116
vn 0.1671 -0.9796 0.1116
vn 0.8157 -0.1939 0.5450
vn 0.3225 0.9217 0.2155
vn 0.7689 -0.3805 0.5138
vn 0.4654 0.8286 0.3110
vn 0.6929 -0.5528 0.4630
vn 0.5905 0.7041 0.3945
vn 0.5905 -0.7041 0.3945
vn 0.6929 0.5528 0.4630
vn 0.4654 -0.8286 0.3110
vn 0.7689 0.3805 0.5138
vn 0.3225 -0.9217 0.2155
vn 0.5893 -0.5528 0.5893
vn 0.5021 -0.7041 0.5021
vn 0.5021 0.7041 0.5021
vn 0.5893 0.5528 0.5893
vn 0.3958 -0.8286 0.3958
vn 0.6539 0.3805 0.6539
vn 0.2743 -0.9217 0.2743
vn 0.6937 0.1939 0.6937
vn 0.1421 -0.9796 0.1421
vn 0.7071 -0.0000 0.7071
vn 0.1421 0.9796 0.1421
vn 0.6937 -0.1939 0.6937
vn 0.2743 0.9217 0.2743
vn 0.6539 -0.3805 0.6539
vn 0.3958 0.8286 0.3958
vn 0.1116 0.9796 0.1671
vn 0.1116 -0.9796 0.1671
vn 0.5556 -0.0000 0.8315
vn 0.5450 -0.1939 0.8157
vn 0.2155 0.9217 0.3225
vn 0.5138 -0.3805 0.7689
vn 0.3110 0.8286 0.4654
vn 0.4630 -0.5528 0.6929
vn 0.3945 0.7041 0.5905
vn 0.3945 -0.7041 0.5905
vn 0.4630 0.5528 0.6929
vn 0.3110 -0.8286 0.4654
vn 0.5138 0.3805 0.7689
vn 0.2155 -0.9217 0.3225
vn 0.5450 0.1939 0.8157
vn 0.2718 0.7041 0.6561
vn 0.3189 0.5528 0.7699
vn 0.2718 -0.7041 0.6561
vn 0.2142 -0.8286 0.5172
vn 0.3539 0.3805 0.8544
vn 0.1484 -0.9217 0.3584
vn 0.3754 0.1939 0.9063
vn 0.0769 -0.9796 0.1857
vn 0.3827 -0.0000 0.9239
vn 0.0769 0.9796 0.1857
vn 0.3754 -0.1939 0.9063
vn 0.1484 0.9217 0.3584
vn 0.3539 -0.3805 0.8544
vn 0.2142 0.8286 0.5172
vn 0.3189 -0.5528 0.7699
vn 0.1951 -0.0000 0.9808
vn 0.1914 -0.1939 0.9622
vn 0.0392 0.9796 0.1971
vn 0.0757 0.9217 0.3804
vn 0.1804 -0.3805 0.9070
vn 0.1092 0.8286 0.5490
vn 0.1626 -0.5528 0.8173
vn 0.1385 0.7041 0.6965
vn 0.1385 -0.7041 0.6965
vn 0.1626 0.5528 0.8173
vn 0.1092 -0.8286 0.5490
vn 0.1804 0.3805 0.9070
vn 0.0757 -0.9217 0.3804
vn 0.1914 0.1939 0.9622
vn 0.0392 -0.9796 0.1971
vn -0.0000 -0.7041 0.7101
vn -0.0000 -0.8286 0.5598
vn -0.0000 0.5528 0.8333
vn -0.0000 0.3805 0.9248
vn -0.0000 -0.9217 0.3879
vn -0.0000 0.1939 0.9810
vn -0.0000 -0.9796 0.2010
vn -0.0000 -0.0000 1.0000
vn -0.0000 0.9796 0.2010
vn -0.0000 -0.1939 0.9810
vn -0.0000 0.9217 0.3879
vn -0.0000 -0.3805 0.9248
vn -0.0000 0.8286 0.5598
vn -0.0000 -0.5528 0.8333
vn -0.0000 0.7041 0.7101
vn -0.1914 -0.1939 0.9622
vn -0.1804 -0.3805 0.9070
vn -0.0757 0.9217 0.3804
vn -0.1092 0.8286 0.5490
vn -0.1626 -0.5528 0.8173
vn -0.1385 0.7041 0.6965
vn -0.1385 -0.7041 0.6965
vn -0.1626 0.5528 0.8173
vn -0.1092 -0.8286 0.5490
vn -0.1804 0.3805 0.9070
vn -0.0757 -0.9217 0.3804
vn -0.1914 0.1939 0.9622
vn -0.0392 -0.9796 0.1971
vn -0.1951 -0.0000 0.9808
vn -0.0392 0.9796 0.1971
vn -0.2142 -0.8286 0.5172
vn -0.1484 -0.9217 0.3584
vn -0.3539 0.3805 0.8544
vn -0.3754 0.1939 0.9063
vn -0.0769 -0.9796 0.1857
vn -0.3827 -0.0000 0.9239
vn -0.0769 0.9796 0.1857
vn -0.3754 -0.1939 0.9063
vn -0.1484 0.9217 0.3584
vn -0.3539 -0.3805 0.8544
vn -0.2142 0.8286 0.5172
vn -0.3189 -0.5528 0.7699
vn -0.2718 0.7041 0.6561
vn -0.2718 -0.7041 0.6561
vn -0.3189 0.5528 0.7699
vn -0.2155 0.9217 0.3225
vn -0.3110 0.8286 0.4654
vn -0.5138 -0.3805 0.7689
vn -0.4630 -0.5528 0.6929
vn -0.3945 0.7041 0.5905
vn -0.3945 -0.7041 0.5905
vn -0.4630 0.5528 0.6929
vn -0.3110 -0.8286 0.4654
vn -0.5138 0.3805 0.7689
vn -0.2155 -0.9217 0.3225
vn -0.5450 0.1939 0.8157
vn -0.1116 -0.9796 0.1671
vn -0.5556 -0.0000 0.8315
vn -0.1116 0.9796 0.1671
vn -0.5450 -0.1939 0.8157
vn -0.6539 0.3805 0.6539
vn -0.6937 0.1939 0.6937
vn -0.2743 -0.9217 0.2743
vn -0.1421 -0.9796 0.1421
vn -0.7071 -0.0000 0.7071
vn -0.1421 0.9796 0.1421
vn -0.6937 -0.1939 0.6937
vn -0.2743 0.9217 0.2743
vn -0.6539 -0.3805 0.6539
vn -0.3958 0.8286 0.3958
vn -0.5893 -0.5528 0.5893
vn -0.5021 0.7041 0.5021
vn -0.5021 -0.7041 0.5021
vn -0.5893 0.5528 0.5893
vn -0.3958 -0.8286 0.3958
vn -0.7689 -0.3805 0.5138
vn -0.6929 -0.5528 0.4630
vn -0.4654 0.8286 0.3110
vn -0.5905 0.7041 0.3945
vn -0.5905 -0.7041 0.3945
vn -0.6929 0.5528 0.4630
vn -0.4654 -0.8286 0.3110
vn -0.7689 0.3805 0.5138
vn -0.3225 -0.9217 0.2155
vn -0.8157 0.1939 0.5450
vn -0.1671 -0.9796 0.1116
vn -0.8315 -0.0000 0.5556
vn -0.1671 0.9796 0.1116
vn -0.8157 -0.1939 0.5450
vn -0.3225 0.9217 0.2155
vn -0.3584 -0.9217 0.1484
vn -0.1857 -0.9796 0.0769
vn -0.9063 0.1939 0.3754
vn -0.9239 -0.0000 0.3827
vn -0.1857 0.9796 0.0769
vn -0.9063 -0.1939 0.3754
vn -0.3584 0.9217 0.1484
vn -0.8544 -0.3805 0.3539
vn -0.5172 0.8286 0.2142
vn -0.7699 -0.5528 0.3189
vn -0.6561 0.7041 0.2718
vn -0.6561 -0.7041 0.2718
vn -0.7699 0.5528 0.3189
vn -0.5172 -0.8286 0.2142
vn -0.8544 0.3805 0.3539
vn -0.5490 0.8286 0.1092
vn -0.6965 0.7041 0.1385
vn -0.8173 -0.5528 0.1626
vn -0.6965 -0.7041 0.1385
vn -0.8173 0.5528 0.1626
vn -0.5490 -0.8286 0.1092
vn -0.9070 0.3805 0.1804
vn -0.3804 -0.9217 0.0757
vn -0.9622 0.1939 0.1914
vn -0.1971 -0.9796 0.0392
vn -0.9808 -0.0000 0.1951
vn -0.1971 0.9796 0.0392
vn -0.9622 -0.1939 0.1914
vn -0.3804 0.9217 0.0757
vn -0.9070 -0.3805 0.1804
vn -0.9810 0.1939 -0.0000
vn -1.0000 -0.0000 -0.0000
vn -0.2010 0.9796 -0.0000
vn -0.2010 -0.9796 -0.0000
vn -0.9810 -0.1939 -0.0000
vn -0.3879 0.9217 -0.0000
vn -0.9248 -0.3805 -0.0000
vn -0.5598 0.8286 -0.0000
vn -0.8333 -0.5528 -0.0000
vn -0.7101 0.7041 -0.0000
vn -0.7101 -0.7041 -0.0000
vn -0.8333 0.5528 -0.0000
vn -0.5598 -0.8286 -0.0000
vn -0.9248 0.3805 -0.0000
vn -0.3879 -0.9217 -0.0000
vn -0.8173 -0.5528 -0.1626
vn -0.6965 -0.7041 -0.1385
vn -0.6965 0.7041 -0.1385
vn -0.8173 0.5528 -0.1626
vn -0.5490 -0.8286 -0.1092
vn -0.9070 0.3805 -0.1804
vn -0.3804 -0.9217 -0.0757
vn -0.9622 0.1939 -0.1914
vn -0.1971 -0.9796 -0.0392
vn -0.9808 -0.0000 -0.1951
vn -0.1971 0.9796 -0.0392
vn -0.9622 -0.1939 -0.1914
vn -0.3804 0.9217 -0.0757
vn -0.9070 -0.3805 -0.1804
vn -0.5490 0.8286 -0.1092
vn -0.1857 -0.9796 -0.0769
vn -0.9239 -0.0000 -0.3827
vn -0.9063 -0.1939 -0.3754
vn -0.1857 0.9796 -0.0769
vn -0.3584 0.9217 -0.1484
vn -0.8544 -0.3805 -0.3539
vn -0.5172 0.8286 -0.2142
vn -0.7699 -0.5528 -0.3189
vn -0.6561 0.7041 -0.2718
vn -0.6561 -0.7041 -0.2718
vn -0.7699 0.5528 -0.3189
vn -0.5172 -0.8286 -0.2142
vn -0.8544 0.3805 -0.3539
vn -0.3584 -0.9217 -0.1484
vn -0.9063 0.1939 -0.3754
vn -0.5905 -0.7041 -0.3945
vn -0.4654 -0.8286 -0.3110
vn -0.6929 0.5528 -0.4630
vn -0.7689 0.3805 -0.5138
vn -0.3225 -0.9217 -0.2155
vn -0.8157 0.1939 -0.5450
vn -0.1671 -0.9796 -0.1117
vn -0.8315 -0.0000 -0.5556
vn -0.1671 0.9796 -0.1117
vn -0.8157 -0.1939 -0.5450
vn -0.3225 0.9217 -0.2155
vn -0.7689 -0.3805 -0.5138
vn -0.4654 0.8286 -0.3110
vn -0.6929 -0.5528 -0.4630
vn -0.5905 0.7041 -0.3945
vn -0.1421 0.9796 -0.1421
vn -0.2743 0.9217 -0.2743
vn -0.6937 -0.1939 -0.6937
vn -0.6539 -0.3805 -0.6539
vn -0.3958 0.8286 -0.3958
vn -0.5893 -0.5528 -0.5893
vn -0.5021 0.7041 -0.5021
vn -0.5021 -0.7041 -0.5021
vn -0.5893 0.5528 -0.5893
vn -0.3958 -0.8286 -0.3958
vn -0.6539 0.3805 -0.6539
vn -0.2743 -0.9217 -0.2743
vn -0.6937 0.1939 -0.6937
vn -0.1421 -0.9796 -0.1421
vn -0.7071 -0.0000 -0.7071
vn -0.4630 0.5528 -0.6929
vn -0.5138 0.3805 -0.7689
vn -0.3110 -0.8286 -0.4654
vn -0.2155 -0.9217 -0.3225
vn -0.5450 0.1939 -0.8157
vn -0.1116 -0.9796 -0.1671
vn -0.5556 -0.0000 -0.8315
vn -0.1116 0.9796 -0.1671
vn -0.5450 -0.1939 -0.8157
vn -0.2155 0.9217 -0.3225
vn -0.5138 -0.3805 -0.7689
vn -0.3110 0.8286 -0.4654
vn -0.4630 -0.5528 -0.6929
vn -0.3945 0.7041 -0.5905
vn -0.3945 -0.7041 -0.5905
vn -0.3754 -0.1939 -0.9063
vn -0.3539 -0.3805 -0.8544
vn -0.1484 0.9217 -0.3584
vn -0.2142 0.8286 -0.5172
vn -0.3189 -0.5528 -0.7699
vn -0.2718 0.7041 -0.6561
vn -0.2718 -0.7041 -0.6561
vn -0.3189 0.5528 -0.7699
vn -0.2142 -0.8286 -0.5172
vn -0.3539 0.3805 -0.8544
vn -0.1484 -0.9217 -0.3584
vn -0.3754 0.1939 -0.9063
vn -0.0769 -0.9796 -0.1857
vn -0.3827 -0.0000 -0.9239
vn -0.0769 0.9796 -0.1857
vn -0.1092 -0.8286 -0.5490
vn -0.0757 -0.9217 -0.3804
vn -0.1804 0.3805 -0.9070
vn -0.1914 0.1939 -0.9622
vn -0.0392 -0.9796 -0.1971
vn -0.1951 -0.0000 -0.9808
vn -0.0392 0.9796 -0.1971
vn -0.1914 -0.1939 -0.9622
vn -0.0757 0.9217 -0.3804
vn -0.1804 -0.3805 -0.9070
vn -0.1092 0.8286 -0.5490
vn -0.1626 -0.5528 -0.8173
vn -0.1385 0.7041 -0.6965
vn -0.1385 -0.7041 -0.6965
vn -0.1626 0.5528 -0.8173
vt 0.750000 0.375000
vt 0.750000 0.437500
vt 0.718750 0.437500
vt 0.718750 0.375000
vt 0.750000 0.812500
vt 0.750000 0.875000
vt 0.718750 0.875000
vt 0.718750 0.812500
vt 0.750000 0.312500
vt 0.718750 0.312500
vt 0.750000 0.750000
vt 0.718750 0.750000
vt 0.750000 0.250000
vt 0.718750 0.250000
vt 0.750000 0.687500
vt 0.718750 0.687500
vt 0.750000 0.187500
vt 0.718750 0.187500
vt 0.750000 0.625000
vt 0.718750 0.625000
vt 0.750000 0.125000
vt 0.718750 0.125000
vt 0.750000 0.562500
vt 0.718750 0.562500
vt 0.750000 0.062500
vt 0.718750 0.062500
vt 0.750000 0.500000
vt 0.718750 0.500000
vt 0.750000 0.937500
vt 0.734375 1.000000
vt 0.718750 0.937500
vt 0.734375 0.000000
vt 0.687500 0.500000
vt 0.687500 0.437500
vt 0.687500 0.937500
vt 0.687500 0.875000
vt 0.687500 0.375000
vt 0.687500 0.812500
vt 0.687500 0.312500
vt 0.687500 0.750000
vt 0.687500 0.250000
vt 0.687500 0.687500
vt 0.687500 0.187500
vt 0.687500 0.625000
vt 0.687500 0.125000
vt 0.687500 0.562500
vt 0.687500 0.062500
vt 0.703125 1.000000
vt 0.703125 0.000000
vt 0.656250 0.250000
vt 0.656250 0.187500
vt 0.656250 0.687500
vt 0.656250 0.625000
vt 0.656250 0.125000
vt 0.656250 0.562500
vt 0.656250 0.062500
vt 0.656250 0.500000
vt 0.671875 1.000000
vt 0.656250 0.937500
vt 0.671875 0.000000
vt 0.656250 0.437500
vt 0.656250 0.875000
vt 0.656250 0.375000
vt 0.656250 0.812500
vt 0.656250 0.312500
vt 0.656250 0.750000
vt 0.625000 0.937500
vt 0.625000 0.875000
vt 0.625000 0.437500
vt 0.625000 0.375000
vt 0.625000 0.812500
vt 0.625000 0.312500
vt 0.625000 0.750000
vt 0.625000 0.250000
vt 0.625000 0.687500
vt 0.625000 0.187500
vt 0.625000 0.625000
vt 0.625000 0.125000
vt 0.625000 0.562500
vt 0.625000 0.062500
vt 0.625000 0.500000
vt 0.640625 1.000000
vt 0.640625 0.000000
vt 0.593750 0.687500
vt 0.593750 0.625000
vt 0.593750 0.187500
vt 0.593750 0.125000
vt 0.593750 0.562500
vt 0.593750 0.062500
vt 0.593750 0.500000
vt 0.609375 1.000000
vt 0.593750 0.937500
vt 0.609375 0.000000
vt 0.593750 0.437500
vt 0.593750 0.875000
vt 0.593750 0.375000
vt 0.593750 0.812500
vt 0.593750 0.312500
vt 0.593750 0.750000
vt 0.593750 0.250000
vt 0.562500 0.437500
vt 0.562500 0.375000
vt 0.562500 0.875000
vt 0.562500 0.812500
vt 0.562500 0.312500
vt 0.562500 0.750000
vt 0.562500 0.250000
vt 0.562500 0.687500
vt 0.562500 0.187500
vt 0.562500 0.625000
vt 0.562500 0.125000
vt 0.562500 0.562500
vt 0.562500 0.062500
vt 0.562500 0.500000
vt 0.578125 1.000000
vt 0.562500 0.937500
vt 0.578125 0.000000
vt 0.531250 0.187500
vt 0.531250 0.125000
vt 0.531250 0.625000
vt 0.531250 0.562500
vt 0.531250 0.062500
vt 0.531250 0.500000
vt 0.546875 1.000000
vt 0.531250 0.937500
vt 0.546875 0.000000
vt 0.531250 0.437500
vt 0.531250 0.875000
vt 0.531250 0.375000
vt 0.531250 0.812500
vt 0.531250 0.312500
vt 0.531250 0.750000
vt 0.531250 0.250000
vt 0.531250 0.687500
vt 0.500000 0.375000
vt 0.500000 0.312500
vt 0.500000 0.812500
vt 0.500000 0.750000
vt 0.500000 0.250000
vt 0.500000 0.687500
vt 0.500000 0.187500
vt 0.500000 0.625000
vt 0.500000 0.125000
vt 0.500000 0.562500
vt 0.500000 0.062500
vt 0.500000 0.500000
vt 0.515625 1.000000
vt 0.500000 0.937500
vt 0.515625 0.000000
vt 0.500000 0.437500
vt 0.500000 0.875000
vt 0.468750 0.125000
vt 0.468750 0.062500
vt 0.468750 0.562500
vt 0.468750 0.500000
vt 0.484375 1.000000
vt 0.468750 0.937500
vt 0.484375 0.000000
vt 0.468750 0.437500
vt 0.468750 0.875000
vt 0.468750 0.375000
vt 0.468750 0.812500
vt 0.468750 0.312500
vt 0.468750 0.750000
vt 0.468750 0.250000
vt 0.468750 0.687500
vt 0.468750 0.187500
vt 0.468750 0.625000
vt 0.437500 0.812500
vt 0.437500 0.750000
vt 0.437500 0.312500
vt 0.437500 0.250000
vt 0.437500 0.687500
vt 0.437500 0.187500
vt 0.437500 0.625000
vt 0.437500 0.125000
vt 0.437500 0.562500
vt 0.437500 0.062500
vt 0.437500 0.500000
vt 0.453125 1.000000
vt 0.437500 0.937500
vt 0.453125 0.000000
vt 0.437500 0.437500
vt 0.437500 0.875000
vt 0.437500 0.375000
vt 0.406250 0.562500
vt 0.406250 0.500000
vt 0.421875 1.000000
vt 0.406250 0.937500
vt 0.421875 0.000000
vt 0.406250 0.062500
vt 0.406250 0.437500
vt 0.406250 0.875000
vt 0.406250 0.375000
vt 0.406250 0.812500
vt 0.406250 0.312500
vt 0.406250 0.750000
vt 0.406250 0.250000
vt 0.406250 0.687500
vt 0.406250 0.187500
vt 0.406250 0.625000
vt 0.406250 0.125000
vt 0.375000 0.312500
vt 0.375000 0.250000
vt 0.375000 0.750000
vt 0.375000 0.687500
vt 0.375000 0.187500
vt 0.375000 0.625000
vt 0.375000 0.125000
vt 0.375000 0.562500
vt 0.375000 0.062500
vt 0.375000 0.500000
vt 0.390625 1.000000
vt 0.375000 0.937500
vt 0.390625 0.000000
vt 0.375000 0.437500
vt 0.375000 0.875000
vt 0.375000 0.375000
vt 0.375000 0.812500
vt 0.359375 1.000000
vt 0.343750 0.937500
vt 0.359375 0.000000
vt 0.343750 0.062500
vt 0.343750 0.500000
vt 0.343750 0.437500
vt 0.343750 0.875000
vt 0.343750 0.375000
vt 0.343750 0.812500
vt 0.343750 0.312500
vt 0.343750 0.750000
vt 0.343750 0.250000
vt 0.343750 0.687500
vt 0.343750 0.187500
vt 0.343750 0.625000
vt 0.343750 0.125000
vt 0.343750 0.562500
vt 0.312500 0.750000
vt 0.312500 0.687500
vt 0.312500 0.250000
vt 0.312500 0.187500
vt 0.312500 0.625000
vt 0.312500 0.125000
vt 0.312500 0.562500
vt 0.312500 0.062500
vt 0.312500 0.500000
vt 0.328125 1.000000
vt 0.312500 0.937500
vt 0.328125 0.000000
vt 0.312500 0.437500
vt 0.312500 0.875000
vt 0.312500 0.375000
vt 0.312500 0.812500
vt 0.312500 0.312500
vt 0.281250 0.500000
vt 0.281250 0.437500
vt 0.281250 0.937500
vt 0.281250 0.875000
vt 0.281250 0.375000
vt 0.281250 0.812500
vt 0.281250 0.312500
vt 0.281250 0.750000
vt 0.281250 0.250000
vt 0.281250 0.687500
vt 0.281250 0.187500
vt 0.281250 0.625000
vt 0.281250 0.125000
vt 0.281250 0.562500
vt 0.281250 0.062500
vt 0.296875 1.000000
vt 0.296875 0.000000
vt 0.250000 0.250000
vt 0.250000 0.187500
vt 0.250000 0.687500
vt 0.250000 0.625000
vt 0.250000 0.125000
vt 0.250000 0.562500
vt 0.250000 0.062500
vt 0.250000 0.500000
vt 0.265625 1.000000
vt 0.250000 0.937500
vt 0.265625 0.000000
vt 0.250000 0.437500
vt 0.250000 0.875000
vt 0.250000 0.375000
vt 0.250000 0.812500
vt 0.250000 0.312500
vt 0.250000 0.750000
vt 0.218750 0.437500
vt 0.218750 0.375000
vt 0.218750 0.875000
vt 0.218750 0.812500
vt 0.218750 0.312500
vt 0.218750 0.750000
vt 0.218750 0.250000
vt 0.218750 0.687500
vt 0.218750 0.187500
vt 0.218750 0.625000
vt 0.218750 0.125000
vt 0.218750 0.562500
vt 0.218750 0.062500
vt 0.218750 0.500000
vt 0.234375 1.000000
vt 0.218750 0.937500
vt 0.234375 0.000000
vt 0.187500 0.187500
vt 0.187500 0.125000
vt 0.187500 0.625000
vt 0.187500 0.562500
vt 0.187500 0.062500
vt 0.187500 0.500000
vt 0.203125 1.000000
vt 0.187500 0.937500
vt 0.203125 0.000000
vt 0.187500 0.437500
vt 0.187500 0.875000
vt 0.187500 0.375000
vt 0.187500 0.812500
vt 0.187500 0.312500
vt 0.187500 0.750000
vt 0.187500 0.250000
vt 0.187500 0.687500
vt 0.156250 0.875000
vt 0.156250 0.812500
vt 0.156250 0.375000
vt 0.156250 0.312500
vt 0.156250 0.750000
vt 0.156250 0.250000
vt 0.156250 0.687500
vt 0.156250 0.187500
vt 0.156250 0.625000
vt 0.156250 0.125000
vt 0.156250 0.562500
vt 0.156250 0.062500
vt 0.156250 0.500000
vt 0.171875 1.000000
vt 0.156250 0.937500
vt 0.171875 0.000000
vt 0.156250 0.437500
vt 0.125000 0.625000
vt 0.125000 0.562500
vt 0.125000 0.125000
vt 0.125000 0.062500
vt 0.125000 0.500000
vt 0.140625 1.000000
vt 0.125000 0.937500
vt 0.140625 0.000000
vt 0.125000 0.437500
vt 0.125000 0.875000
vt 0.125000 0.375000
vt 0.125000 0.812500
vt 0.125000 0.312500
vt 0.125000 0.750000
vt 0.125000 0.250000
vt 0.125000 0.687500
vt 0.125000 0.187500
vt 0.093750 0.375000
vt 0.093750 0.312500
vt 0.093750 0.812500
vt 0.093750 0.750000
vt 0.093750 0.250000
vt 0.093750 0.687500
vt 0.093750 0.187500
vt 0.093750 0.625000
vt 0.093750 0.125000
vt 0.093750 0.562500
vt 0.093750 0.062500
vt 0.093750 0.500000
vt 0.109375 1.000000
vt 0.093750 0.937500
vt 0.109375 0.000000
vt 0.093750 0.437500
vt 0.093750 0.875000
vt 0.062500 0.125000
vt 0.062500 0.062500
vt 0.062500 0.562500
vt 0.062500 0.500000
vt 0.078125 1.000000
vt 0.062500 0.937500
vt 0.078125 0.000000
vt 0.062500 0.437500
vt 0.062500 0.875000
vt 0.062500 0.375000
vt 0.062500 0.812500
vt 0.062500 0.312500
vt 0.062500 0.750000
vt 0.062500 0.250000
vt 0.062500 0.687500
vt 0.062500 0.187500
vt 0.062500 0.625000
vt 0.031250 0.812500
vt 0.031250 0.750000
vt 0.031250 0.312500
vt 0.031250 0.250000
vt 0.031250 0.687500
vt 0.031250 0.187500
vt 0.031250 0.625000
vt 0.031250 0.125000
vt 0.031250 0.562500
vt 0.031250 0.062500
vt 0.031250 0.500000
vt 0.046875 1.000000
vt 0.031250 0.937500
vt 0.046875 0.000000
vt 0.031250 0.437500
vt 0.031250 0.875000
vt 0.031250 0.375000
vt 0.000000 0.562500
vt 0.000000 0.500000
vt 0.015625 1.000000
vt 0.000000 0.937500
vt 0.015625 0.000000
vt 0.000000 0.062500
vt 0.000000 0.437500
vt 0.000000 0.875000
vt 0.000000 0.375000
vt 0.000000 0.812500
vt 0.000000 0.312500
vt 0.000000 0.750000
vt 0.000000 0.250000
vt 0.000000 0.687500
vt 0.000000 0.187500
vt 0.000000 0.625000
vt 0.000000 0.125000
vt 1.000000 0.250000
vt 1.000000 0.312500
vt 0.968750 0.312500
vt 0.968750 0.250000
vt 1.000000 0.687500
vt 1.000000 0.750000
vt 0.968750 0.750000
vt 0.968750 0.687500
vt 1.000000 0.187500
vt 0.968750 0.187500
vt 1.000000 0.625000
vt 0.968750 0.625000
vt 1.000000 0.125000
vt 0.968750 0.125000
vt 1.000000 0.562500
vt 0.968750 0.562500
vt 1.000000 0.062500
vt 0.968750 0.062500
vt 1.000000 0.500000
vt 0.968750 0.500000
vt 1.000000 0.937500
vt 0.984375 1.000000
vt 0.968750 0.937500
vt 0.984375 0.000000
vt 1.000000 0.437500
vt 0.968750 0.437500
vt 1.000000 0.875000
vt 0.968750 0.875000
vt 1.000000 0.375000
vt 0.968750 0.375000
vt 1.000000 0.812500
vt 0.968750 0.812500
vt 0.953125 0.000000
vt 0.937500 0.062500
vt 0.937500 0.500000
vt 0.937500 0.437500
vt 0.937500 0.937500
vt 0.937500 0.875000
vt 0.937500 0.375000
vt 0.937500 0.812500
vt 0.937500 0.312500
vt 0.937500 0.750000
vt 0.937500 0.250000
vt 0.937500 0.687500
vt 0.937500 0.187500
vt 0.937500 0.625000
vt 0.937500 0.125000
vt 0.937500 0.562500
vt 0.953125 1.000000
vt 0.906250 0.250000
vt 0.906250 0.187500
vt 0.906250 0.687500
vt 0.906250 0.625000
vt 0.906250 0.125000
vt 0.906250 0.562500
vt 0.906250 0.062500
vt 0.906250 0.500000
vt 0.921875 1.000000
vt 0.906250 0.937500
vt 0.921875 0.000000
vt 0.906250 0.437500
vt 0.906250 0.875000
vt 0.906250 0.375000
vt 0.906250 0.812500
vt 0.906250 0.312500
vt 0.906250 0.750000
vt 0.875000 0.937500
vt 0.875000 0.875000
vt 0.875000 0.437500
vt 0.875000 0.375000
vt 0.875000 0.812500
vt 0.875000 0.312500
vt 0.875000 0.750000
vt 0.875000 0.250000
vt 0.875000 0.687500
vt 0.875000 0.187500
vt 0.875000 0.625000
vt 0.875000 0.125000
vt 0.875000 0.562500
vt 0.875000 0.062500
vt 0.875000 0.500000
vt 0.890625 1.000000
vt 0.890625 0.000000
vt 0.843750 0.687500
vt 0.843750 0.625000
vt 0.843750 0.187500
vt 0.843750 0.125000
vt 0.843750 0.562500
vt 0.843750 0.062500
vt 0.843750 0.500000
vt 0.859375 1.000000
vt 0.843750 0.937500
vt 0.859375 0.000000
vt 0.843750 0.437500
vt 0.843750 0.875000
vt 0.843750 0.375000
vt 0.843750 0.812500
vt 0.843750 0.312500
vt 0.843750 0.750000
vt 0.843750 0.250000
vt 0.812500 0.437500
vt 0.812500 0.375000
vt 0.812500 0.875000
vt 0.812500 0.812500
vt 0.812500 0.312500
vt 0.812500 0.750000
vt 0.812500 0.250000
vt 0.812500 0.687500
vt 0.812500 0.187500
vt 0.812500 0.625000
vt 0.812500 0.125000
vt 0.812500 0.562500
vt 0.812500 0.062500
vt 0.812500 0.500000
vt 0.828125 1.000000
vt 0.812500 0.937500
vt 0.828125 0.000000
vt 0.781250 0.187500
vt 0.781250 0.125000
vt 0.781250 0.625000
vt 0.781250 0.562500
vt 0.781250 0.062500
vt 0.781250 0.500000
vt 0.796875 1.000000
vt 0.781250 0.937500
vt 0.796875 0.000000
vt 0.781250 0.437500
vt 0.781250 0.875000
vt 0.781250 0.375000
vt 0.781250 0.812500
vt 0.781250 0.312500
vt 0.781250 0.750000
vt 0.781250 0.250000
vt 0.781250 0.687500
vt 0.765625 1.000000
vt 0.765625 0.000000
s 1
f 562/163/48 90/164/49 101/165/50 102/166/51
f 86/167/52 559/168/53 94/169/54 95/170/55
f 91/171/56 562/163/48 102/166/51 103/172/57
f 560/173/58 86/167/52 95/170/55 96/174/59
f 563/175/60 91/171/56 103/172/57 104/176/61
f 87/177/62 560/173/58 96/174/59 97/178/63
f 564/179/64 563/175/60 104/176/61 105/180/65
f 561/181/66 87/177/62 97/178/63 98/182/67
f 565/183/68 564/179/64 105/180/65 106/184/69
f 88/185/70 561/181/66 98/182/67 99/186/71
f 566/187/72 565/183/68 106/184/69 107/188/73
f 89/189/74 88/185/70 99/186/71 100/190/75
f 558/191/76 85/192/77 93/193/78
f 92/194/79 566/187/72 107/188/73
f 90/164/49 89/189/74 100/190/75 101/165/50
f 559/168/53 558/191/76 93/193/78 94/169/54
f 101/165/50 100/190/75 115/195/80 116/196/81
f 94/169/54 93/193/78 108/197/82 109/198/83
f 102/166/51 101/165/50 116/196/81 117/199/84
f 95/170/55 94/169/54 109/198/83 110/200/85
f 103/172/57 102/166/51 117/199/84 118/201/86
f 96/174/59 95/170/55 110/200/85 111/202/87
f 104/176/61 103/172/57 118/201/86 119/203/88
f 97/178/63 96/174/59 111/202/87 112/204/89
f 105/180/65 104/176/61 119/203/88 120/205/90
f 98/182/67 97/178/63 112/204/89 113/206/91
f 106/184/69 105/180/65 120/205/90 121/207/92
f 99/186/71 98/182/67 113/206/91 114/208/93
f 107/188/73 106/184/69 121/207/92 122/209/94
f 100/190/75 99/186/71 114/208/93 115/195/80
f 93/193/78 85/210/77 108/197/82
f 92/211/79 107/188/73 122/209/94
f 120/205/90 119/203/88 134/212/95 135/213/96
f 113/206/91 112/204/89 127/214/97 128/215/98
f 121/207/92 120/205/90 135/213/96 136/216/99
f 114/208/93 113/206/91 128/215/98 129/217/100
f 122/209/94 121/207/92 136/216/99 137/218/101
f 115/195/80 114/208/93 129/217/100 130/219/102
f 108/197/82 85/220/77 123/221/103
f 92/222/79 122/209/94 137/218/101
f 116/196/81 115/195/80 130/219/102 131/223/104
f 109/198/83 108/197/82 123/221/103 124/224/105
f 117/199/84 116/196/81 131/223/104 132/225/106
f 110/200/85 109/198/83 124/224/105 125/226/107
f 118/201/86 117/199/84 132/225/106 133/227/108
f 111/202/87 110/200/85 125/226/107 126/228/109
f 119/203/88 118/201/86 133/227/108 134/212/95
f 112/204/89 111/202/87 126/228/109 127/214/97
f 124/224/105 123/221/103 138/229/110 139/230/111
f 132/225/106 131/223/104 146/231/112 147/232/113
f 125/226/107 124/224/105 139/230/111 140/233/114
f 133/227/108 132/225/106 147/232/113 148/234/115
f 126/228/109 125/226/107 140/233/114 141/235/116
f 134/212/95 133/227/108 148/234/115 149/236/117
f 127/214/97 126/228/109 141/235/116 142/237/118
f 135/213/96 134/212/95 149/236/117 150/238/119
f 128/215/98 127/214/97 142/237/118 143/239/120
f 136/216/99 135/213/96 150/238/119 151/240/121
f 129/217/100 128/215/98 143/239/120 144/241/122
f 137/218/101 136/216/99 151/240/121 152/242/123
f 130/219/102 129/217/100 144/241/122 145/243/124
f 123/221/103 85/244/77 138/229/110
f 92/245/79 137/218/101 152/242/123
f 131/223/104 130/219/102 145/243/124 146/231/112
f 143/239/120 142/237/118 157/246/125 158/247/126
f 151/240/121 150/238/119 165/248/127 166/249/128
f 144/241/122 143/239/120 158/247/126 159/250/129
f 152/242/123 151/240/121 166/249/128 167/251/130
f 145/243/124 144/241/122 159/250/129 160/252/131
f 138/229/110 85/253/77 153/254/132
f 92/255/79 152/242/123 167/251/130
f 146/231/112 145/243/124 160/252/131 161/256/133
f 139/230/111 138/229/110 153/254/132 154/257/134
f 147/232/113 146/231/112 161/256/133 162/258/135
f 140/233/114 139/230/111 154/257/134 155/259/136
f 148/234/115 147/232/113 162/258/135 163/260/137
f 141/235/116 140/233/114 155/259/136 156/261/138
f 149/236/117 148/234/115 163/260/137 164/262/139
f 142/237/118 141/235/116 156/261/138 157/246/125
f 150/238/119 149/236/117 164/262/139 165/248/127
f 162/258/135 161/256/133 176/263/140 177/264/141
f 155/259/136 154/257/134 169/265/142 170/266/143
f 163/260/137 162/258/135 177/264/141 178/267/144
f 156/261/138 155/259/136 170/266/143 171/268/145
f 164/262/139 163/260/137 178/267/144 179/269/146
f 157/246/125 156/261/138 171/268/145 172/270/147
f 165/248/127 164/262/139 179/269/146 180/271/148
f 158/247/126 157/246/125 172/270/147 173/272/149
f 166/249/128 165/248/127 180/271/148 181/273/150
f 159/250/129 158/247/126 173/272/149 174/274/151
f 167/251/130 166/249/128 181/273/150 182/275/152
f 160/252/131 159/250/129 174/274/151 175/276/153
f 153/254/132 85/277/77 168/278/154
f 92/279/79 167/251/130 182/275/152
f 161/256/133 160/252/131 175/276/153 176/263/140
f 154/257/134 153/254/132 168/278/154 169/265/142
f 181/273/150 180/271/148 195/280/155 196/281/156
f 174/274/151 173/272/149 188/282/157 189/283/158
f 182/275/152 181/273/150 196/281/156 197/284/159
f 175/276/153 174/274/151 189/283/158 190/285/160
f 168/278/154 85/286/77 183/287/161
f 92/288/79 182/275/152 197/284/159
f 176/263/140 175/276/153 190/285/160 191/289/162
f 169/265/142 168/278/154 183/287/161 184/290/163
f 177/264/141 176/263/140 191/289/162 192/291/164
f 170/266/143 169/265/142 184/290/163 185/292/165
f 178/267/144 177/264/141 192/291/164 193/293/166
f 171/268/145 170/266/143 185/292/165 186/294/167
f 179/269/146 178/267/144 193/293/166 194/295/168
f 172/270/147 171/268/145 186/294/167 187/296/169
f 180/271/148 179/269/146 194/295/168 195/280/155
f 173/272/149 172/270/147 187/296/169 188/282/157
f 193/293/166 192/291/164 207/297/170 208/298/171
f 186/294/167 185/292/165 200/299/172 201/300/173
f 194/295/168 193/293/166 208/298/171 209/301/174
f 187/296/169 186/294/167 201/300/173 202/302/175
f 195/280/155 194/295/168 209/301/174 210/303/176
f 188/282/157 187/296/169 202/302/175 203/304/177
f 196/281/156 195/280/155 210/303/176 211/305/178
f 189/283/158 188/282/157 203/304/177 204/306/179
f 197/284/159 196/281/156 211/305/178 212/307/180
f 190/285/160 189/283/158 204/306/179 205/308/181
f 183/287/161 85/309/77 198/310/182
f 92/311/79 197/284/159 212/307/180
f 191/289/162 190/285/160 205/308/181 206/312/183
f 184/290/163 183/287/161 198/310/182 199/313/184
f 192/291/164 191/289/162 206/312/183 207/297/170
f 185/292/165 184/290/163 199/313/184 200/299/172
f 212/307/180 211/305/178 226/314/185 227/315/186
f 205/308/181 204/306/179 219/316/187 220/317/188
f 198/310/182 85/318/77 213/319/189
f 92/320/79 212/307/180 227/315/186
f 206/312/183 205/308/181 220/317/188 221/321/190
f 199/313/184 198/310/182 213/319/189 214/322/191
f 207/297/170 206/312/183 221/321/190 222/323/192
f 200/299/172 199/313/184 214/322/191 215/324/193
f 208/298/171 207/297/170 222/323/192 223/325/194
f 201/300/173 200/299/172 215/324/193 216/326/195
f 209/301/174 208/298/171 223/325/194 224/327/196
f 202/302/175 201/300/173 216/326/195 217/328/197
f 210/303/176 209/301/174 224/327/196 225/329/198
f 203/304/177 202/302/175 217/328/197 218/330/199
f 211/305/178 210/303/176 225/329/198 226/314/185
f 204/306/179 203/304/177 218/330/199 219/316/187
f 216/326/195 215/324/193 230/331/200 231/332/201
f 224/327/196 223/325/194 238/333/202 239/334/203
f 217/328/197 216/326/195 231/332/201 232/335/204
f 225/329/198 224/327/196 239/334/203 240/336/205
f 218/330/199 217/328/197 232/335/204 233/337/206
f 226/314/185 225/329/198 240/336/205 241/338/207
f 219/316/187 218/330/199 233/337/206 234/339/208
f 227/315/186 226/314/185 241/338/207 242/340/209
f 220/317/188 219/316/187 234/339/208 235/341/210
f 213/319/189 85/342/77 228/343/211
f 92/344/79 227/315/186 242/340/209
f 221/321/190 220/317/188 235/341/210 236/345/212
f 214/322/191 213/319/189 228/343/211 229/346/213
f 222/323/192 221/321/190 236/345/212 237/347/214
f 215/324/193 214/322/191 229/346/213 230/331/200
f 223/325/194 222/323/192 237/347/214 238/333/202
f 235/341/210 234/339/208 249/348/215 250/349/216
f 228/343/211 85/350/77 243/351/217
f 92/352/79 242/340/209 257/353/218
f 236/345/212 235/341/210 250/349/216 251/354/219
f 229/346/213 228/343/211 243/351/217 244/355/220
f 237/347/214 236/345/212 251/354/219 252/356/221
f 230/331/200 229/346/213 244/355/220 245/357/222
f 238/333/202 237/347/214 252/356/221 253/358/223
f 231/332/201 230/331/200 245/357/222 246/359/224
f 239/334/203 238/333/202 253/358/223 254/360/225
f 232/335/204 231/332/201 246/359/224 247/361/226
f 240/336/205 239/334/203 254/360/225 255/362/227
f 233/337/206 232/335/204 247/361/226 248/363/228
f 241/338/207 240/336/205 255/362/227 256/364/229
f 234/339/208 233/337/206 248/363/228 249/348/215
f 242/340/209 241/338/207 256/364/229 257/353/218
f 254/360/225 253/358/223 268/365/230 269/366/231
f 247/361/226 246/359/224 261/367/232 262/368/233
f 255/362/227 254/360/225 269/366/231 270/369/234
f 248/363/228 247/361/226 262/368/233 263/370/235
f 256/364/229 255/362/227 270/369/234 271/371/236
f 249/348/215 248/363/228 263/370/235 264/372/237
f 257/353/218 256/364/229 271/371/236 272/373/238
f 250/349/216 249/348/215 264/372/237 265/374/239
f 243/351/217 85/375/77 258/376/240
f 92/377/79 257/353/218 272/373/238
f 251/354/219 250/349/216 265/374/239 266/378/241
f 244/355/220 243/351/217 258/376/240 259/379/242
f 252/356/221 251/354/219 266/378/241 267/380/243
f 245/357/222 244/355/220 259/379/242 260/381/244
f 253/358/223 252/356/221 267/380/243 268/365/230
f 246/359/224 245/357/222 260/381/244 261/367/232
f 258/376/240 85/382/77 273/383/245
f 92/384/79 272/373/238 287/385/246
f 266/378/241 265/374/239 280/386/247 281/387/248
f 259/379/242 258/376/240 273/383/245 274/388/249
f 267/380/243 266/378/241 281/387/248 282/389/250
f 260/381/244 259/379/242 274/388/249 275/390/251
f 268/365/230 267/380/243 282/389/250 283/391/252
f 261/367/232 260/381/244 275/390/251 276/392/253
f 269/366/231 268/365/230 283/391/252 284/393/254
f 262/368/233 261/367/232 276/392/253 277/394/255
f 270/369/234 269/366/231 284/393/254 285/395/256
f 263/370/235 262/368/233 277/394/255 278/396/257
f 271/371/236 270/369/234 285/395/256 286/397/258
f 264/372/237 263/370/235 278/396/257 279/398/259
f 272/373/238 271/371/236 286/397/258 287/385/246
f 265/374/239 264/372/237 279/398/259 280/386/247
f 277/394/255 276/392/253 291/399/260 292/400/261
f 285/395/256 284/393/254 299/401/262 300/402/263
f 278/396/257 277/394/255 292/400/261 293/403/264
f 286/397/258 285/395/256 300/402/263 301/404/265
f 279/398/259 278/396/257 293/403/264 294/405/266
f 287/385/246 286/397/258 301/404/265 302/406/267
f 280/386/247 279/398/259 294/405/266 295/407/268
f 273/383/245 85/408/77 288/409/269
f 92/410/79 287/385/246 302/406/267
f 281/387/248 280/386/247 295/407/268 296/411/270
f 274/388/249 273/383/245 288/409/269 289/412/271
f 282/389/250 281/387/248 296/411/270 297/413/272
f 275/390/251 274/388/249 289/412/271 290/414/273
f 283/391/252 282/389/250 297/413/272 298/415/274
f 276/392/253 275/390/251 290/414/273 291/399/260
f 284/393/254 283/391/252 298/415/274 299/401/262
f 296/411/270 295/407/268 310/416/275 311/417/276
f 289/412/271 288/409/269 303/418/277 304/419/278
f 297/413/272 296/411/270 311/417/276 312/420/279
f 290/414/273 289/412/271 304/419/278 305/421/280
f 298/415/274 297/413/272 312/420/279 313/422/281
f 291/399/260 290/414/273 305/421/280 306/423/282
f 299/401/262 298/415/274 313/422/281 314/424/283
f 292/400/261 291/399/260 306/423/282 307/425/284
f 300/402/263 299/401/262 314/424/283 315/426/285
f 293/403/264 292/400/261 307/425/284 308/427/286
f 301/404/265 300/402/263 315/426/285 316/428/287
f 294/405/266 293/403/264 308/427/286 309/429/288
f 302/406/267 301/404/265 316/428/287 317/430/289
f 295/407/268 294/405/266 309/429/288 310/416/275
f 288/409/269 85/431/77 303/418/277
f 92/432/79 302/406/267 317/430/289
f 315/426/285 314/424/283 329/433/290 330/434/291
f 308/427/286 307/425/284 322/435/292 323/436/293
f 316/428/287 315/426/285 330/434/291 331/437/294
f 309/429/288 308/427/286 323/436/293 324/438/295
f 317/430/289 316/428/287 331/437/294 332/439/296
f 310/416/275 309/429/288 324/438/295 325/440/297
f 303/418/277 85/441/77 318/442/298
f 92/443/79 317/430/289 332/439/296
f 311/417/276 310/416/275 325/440/297 326/444/299
f 304/419/278 303/418/277 318/442/298 319/445/300
f 312/420/279 311/417/276 326/444/299 327/446/301
f 305/421/280 304/419/278 319/445/300 320/447/302
f 313/422/281 312/420/279 327/446/301 328/448/303
f 306/423/282 305/421/280 320/447/302 321/449/304
f 314/424/283 313/422/281 328/448/303 329/433/290
f 307/425/284 306/423/282 321/449/304 322/435/292
f 327/446/301 326/444/299 341/450/305 342/451/306
f 320/447/302 319/445/300 334/452/307 335/453/308
f 328/448/303 327/446/301 342/451/306 343/454/309
f 321/449/304 320/447/302 335/453/308 336/455/310
f 329/433/290 328/448/303 343/454/309 344/456/311
f 322/435/292 321/449/304 336/455/310 337/457/312
f 330/434/291 329/433/290 344/456/311 345/458/313
f 323/436/293 322/435/292 337/457/312 338/459/314
f 331/437/294 330/434/291 345/458/313 346/460/315
f 324/438/295 323/436/293 338/459/314 339/461/316
f 332/439/296 331/437/294 346/460/315 347/462/317
f 325/440/297 324/438/295 339/461/316 340/463/318
f 318/442/298 85/464/77 333/465/319
f 92/466/79 332/439/296 347/462/317
f 326/444/299 325/440/297 340/463/318 341/450/305
f 319/445/300 318/442/298 333/465/319 334/452/307
f 346/460/315 345/458/313 360/467/320 361/468/321
f 339/461/316 338/459/314 353/469/322 354/470/323
f 347/462/317 346/460/315 361/468/321 362/471/324
f 340/463/318 339/461/316 354/470/323 355/472/325
f 333/465/319 85/473/77 348/474/326
f 92/475/79 347/462/317 362/471/324
f 341/450/305 340/463/318 355/472/325 356/476/327
f 334/452/307 333/465/319 348/474/326 349/477/328
f 342/451/306 341/450/305 356/476/327 357/478/329
f 335/453/308 334/452/307 349/477/328 350/479/330
f 343/454/309 342/451/306 357/478/329 358/480/331
f 336/455/310 335/453/308 350/479/330 351/481/332
f 344/456/311 343/454/309 358/480/331 359/482/333
f 337/457/312 336/455/310 351/481/332 352/483/334
f 345/458/313 344/456/311 359/482/333 360/467/320
f 338/459/314 337/457/312 352/483/334 353/469/322
f 350/479/330 349/477/328 364/484/335 365/485/336
f 358/480/331 357/478/329 372/486/337 373/487/338
f 351/481/332 350/479/330 365/485/336 366/488/339
f 359/482/333 358/480/331 373/487/338 374/489/340
f 352/483/334 351/481/332 366/488/339 367/490/341
f 360/467/320 359/482/333 374/489/340 375/491/342
f 353/469/322 352/483/334 367/490/341 368/492/343
f 361/468/321 360/467/320 375/491/342 376/493/344
f 354/470/323 353/469/322 368/492/343 369/494/345
f 362/471/324 361/468/321 376/493/344 377/495/346
f 355/472/325 354/470/323 369/494/345 370/496/347
f 348/474/326 85/497/77 363/498/348
f 92/499/79 362/471/324 377/495/346
f 356/476/327 355/472/325 370/496/347 371/500/349
f 349/477/328 348/474/326 363/498/348 364/484/335
f 357/478/329 356/476/327 371/500/349 372/486/337
f 369/494/345 368/492/343 383/501/350 384/502/351
f 377/495/346 376/493/344 391/503/352 392/504/353
f 370/496/347 369/494/345 384/502/351 385/505/354
f 363/498/348 85/506/77 378/507/355
f 92/508/79 377/495/346 392/504/353
f 371/500/349 370/496/347 385/505/354 386/509/356
f 364/484/335 363/498/348 378/507/355 379/510/357
f 372/486/337 371/500/349 386/509/356 387/511/358
f 365/485/336 364/484/335 379/510/357 380/512/359
f 373/487/338 372/486/337 387/511/358 388/513/360
f 366/488/339 365/485/336 380/512/359 381/514/361
f 374/489/340 373/487/338 388/513/360 389/515/362
f 367/490/341 366/488/339 381/514/361 382/516/363
f 375/491/342 374/489/340 389/515/362 390/517/364
f 368/492/343 367/490/341 382/516/363 383/501/350
f 376/493/344 375/491/342 390/517/364 391/503/352
f 388/513/360 387/511/358 402/518/365 403/519/366
f 381/514/361 380/512/359 395/520/367 396/521/368
f 389/515/362 388/513/360 403/519/366 404/522/369
f 382/516/363 381/514/361 396/521/368 397/523/370
f 390/517/364 389/515/362 404/522/369 405/524/371
f 383/501/350 382/516/363 397/523/370 398/525/372
f 391/503/352 390/517/364 405/524/371 406/526/373
f 384/502/351 383/501/350 398/525/372 399/527/374
f 392/504/353 391/503/352 406/526/373 407/528/375
f 385/505/354 384/502/351 399/527/374 400/529/376
f 378/507/355 85/530/77 393/531/377
f 92/532/79 392/504/353 407/528/375
f 386/509/356 385/505/354 400/529/376 401/533/378
f 379/510/357 378/507/355 393/531/377 394/534/379
f 387/511/358 386/509/356 401/533/378 402/518/365
f 380/512/359 379/510/357 394/534/379 395/520/367
f 407/528/375 406/526/373 421/535/380 422/536/381
f 400/529/376 399/527/374 414/537/382 415/538/383
f 393/531/377 85/539/77 408/540/384
f 92/541/79 407/528/375 422/536/381
f 401/533/378 400/529/376 415/538/383 416/542/385
f 394/534/379 393/531/377 408/540/384 409/543/386
f 402/518/365 401/533/378 416/542/385 417/544/387
f 395/520/367 394/534/379 409/543/386 410/545/388
f 403/519/366 402/518/365 417/544/387 418/546/389
f 396/521/368 395/520/367 410/545/388 411/547/390
f 404/522/369 403/519/366 418/546/389 419/548/391
f 397/523/370 396/521/368 411/547/390 412/549/392
f 405/524/371 404/522/369 419/548/391 420/550/393
f 398/525/372 397/523/370 412/549/392 413/551/394
f 406/526/373 405/524/371 420/550/393 421/535/380
f 399/527/374 398/525/372 413/551/394 414/537/382
f 411/547/390 410/545/388 425/552/395 426/553/396
f 419/548/391 418/546/389 433/554/397 434/555/398
f 412/549/392 411/547/390 426/553/396 427/556/399
f 420/550/393 419/548/391 434/555/398 435/557/400
f 413/551/394 412/549/392 427/556/399 428/558/401
f 421/535/380 420/550/393 435/557/400 436/559/402
f 414/537/382 413/551/394 428/558/401 429/560/403
f 422/536/381 421/535/380 436/559/402 437/561/404
f 415/538/383 414/537/382 429/560/403 430/562/405
f 408/540/384 85/563/77 423/564/406
f 92/565/79 422/536/381 437/561/404
f 416/542/385 415/538/383 430/562/405 431/566/407
f 409/543/386 408/540/384 423/564/406 424/567/408
f 417/544/387 416/542/385 431/566/407 432/568/409
f 410/545/388 409/543/386 424/567/408 425/552/395
f 418/546/389 417/544/387 432/568/409 433/554/397
f 430/562/405 429/560/403 444/569/410 445/570/411
f 423/564/406 85/571/77 438/572/412
f 92/573/79 437/561/404 452/574/413
f 431/566/407 430/562/405 445/570/411 446/575/414
f 424/567/408 423/564/406 438/572/412 439/576/415
f 432/568/409 431/566/407 446/575/414 447/577/416
f 425/552/395 424/567/408 439/576/415 440/578/417
f 433/554/397 432/568/409 447/577/416 448/579/418
f 426/553/396 425/552/395 440/578/417 441/580/419
f 434/555/398 433/554/397 448/579/418 449/581/420
f 427/556/399 426/553/396 441/580/419 442/582/421
f 435/557/400 434/555/398 449/581/420 450/583/422
f 428/558/401 427/556/399 442/582/421 443/584/423
f 436/559/402 435/557/400 450/583/422 451/585/424
f 429/560/403 428/558/401 443/584/423 444/569/410
f 437/561/404 436/559/402 451/585/424 452/574/413
f 449/586/420 448/587/418 463/588/425 464/589/426
f 442/590/421 441/591/419 456/592/427 457/593/428
f 450/594/422 449/586/420 464/589/426 465/595/429
f 443/596/423 442/590/421 457/593/428 458/597/430
f 451/598/424 450/594/422 465/595/429 466/599/431
f 444/600/410 443/596/423 458/597/430 459/601/432
f 452/602/413 451/598/424 466/599/431 467/603/433
f 445/604/411 444/600/410 459/601/432 460/605/434
f 438/606/412 85/607/77 453/608/435
f 92/609/79 452/602/413 467/603/433
f 446/610/414 445/604/411 460/605/434 461/611/436
f 439/612/415 438/606/412 453/608/435 454/613/437
f 447/614/416 446/610/414 461/611/436 462/615/438
f 440/616/417 439/612/415 454/613/437 455/617/439
f 448/587/418 447/614/416 462/615/438 463/588/425
f 441/591/419 440/616/417 455/617/439 456/592/427
f 92/618/79 467/603/433 482/619/440
f 461/611/436 460/605/434 475/620/441 476/621/442
f 454/613/437 453/608/435 468/622/443 469/623/444
f 462/615/438 461/611/436 476/621/442 477/624/445
f 455/617/439 454/613/437 469/623/444 470/625/446
f 463/588/425 462/615/438 477/624/445 478/626/447
f 456/592/427 455/617/439 470/625/446 471/627/448
f 464/589/426 463/588/425 478/626/447 479/628/449
f 457/593/428 456/592/427 471/627/448 472/629/450
f 465/595/429 464/589/426 479/628/449 480/630/451
f 458/597/430 457/593/428 472/629/450 473/631/452
f 466/599/431 465/595/429 480/630/451 481/632/453
f 459/601/432 458/597/430 473/631/452 474/633/454
f 467/603/433 466/599/431 481/632/453 482/619/440
f 460/605/434 459/601/432 474/633/454 475/620/441
f 453/608/435 85/634/77 468/622/443
f 480/630/451 479/628/449 494/635/455 495/636/456
f 473/631/452 472/629/450 487/637/457 488/638/458
f 481/632/453 480/630/451 495/636/456 496/639/459
f 474/633/454 473/631/452 488/638/458 489/640/460
f 482/619/440 481/632/453 496/639/459 497/641/461
f 475/620/441 474/633/454 489/640/460 490/642/462
f 468/622/443 85/643/77 483/644/463
f 92/645/79 482/619/440 497/641/461
f 476/621/442 475/620/441 490/642/462 491/646/464
f 469/623/444 468/622/443 483/644/463 484/647/465
f 477/624/445 476/621/442 491/646/464 492/648/466
f 470/625/446 469/623/444 484/647/465 485/649/467
f 478/626/447 477/624/445 492/648/466 493/650/468
f 471/627/448 470/625/446 485/649/467 486/651/469
f 479/628/449 478/626/447 493/650/468 494/635/455
f 472/629/450 471/627/448 486/651/469 487/637/457
f 484/647/465 483/644/463 498/652/470 499/653/471
f 492/648/466 491/646/464 506/654/472 507/655/473
f 485/649/467 484/647/465 499/653/471 500/656/474
f 493/650/468 492/648/466 507/655/473 508/657/475
f 486/651/469 485/649/467 500/656/474 501/658/476
f 494/635/455 493/650/468 508/657/475 509/659/477
f 487/637/457 486/651/469 501/658/476 502/660/478
f 495/636/456 494/635/455 509/659/477 510/661/479
f 488/638/458 487/637/457 502/660/478 503/662/480
f 496/639/459 495/636/456 510/661/479 511/663/481
f 489/640/460 488/638/458 503/662/480 504/664/482
f 497/641/461 496/639/459 511/663/481 512/665/483
f 490/642/462 489/640/460 504/664/482 505/666/484
f 483/644/463 85/667/77 498/652/470
f 92/668/79 497/641/461 512/665/483
f 491/646/464 490/642/462 505/666/484 506/654/472
f 503/662/480 502/660/478 517/669/485 518/670/486
f 511/663/481 510/661/479 525/671/487 526/672/488
f 504/664/482 503/662/480 518/670/486 519/673/489
f 512/665/483 511/663/481 526/672/488 527/674/490
f 505/666/484 504/664/482 519/673/489 520/675/491
f 498/652/470 85/676/77 513/677/492
f 92/678/79 512/665/483 527/674/490
f 506/654/472 505/666/484 520/675/491 521/679/493
f 499/653/471 498/652/470 513/677/492 514/680/494
f 507/655/473 506/654/472 521/679/493 522/681/495
f 500/656/474 499/653/471 514/680/494 515/682/496
f 508/657/475 507/655/473 522/681/495 523/683/497
f 501/658/476 500/656/474 515/682/496 516/684/498
f 509/659/477 508/657/475 523/683/497 524/685/499
f 502/660/478 501/658/476 516/684/498 517/669/485
f 510/661/479 509/659/477 524/685/499 525/671/487
f 522/681/495 521/679/493 536/686/500 537/687/501
f 515/682/496 514/680/494 529/688/502 530/689/503
f 523/683/497 522/681/495 537/687/501 538/690/504
f 516/684/498 515/682/496 530/689/503 531/691/505
f 524/685/499 523/683/497 538/690/504 539/692/506
f 517/669/485 516/684/498 531/691/505 532/693/507
f 525/671/487 524/685/499 539/692/506 540/694/508
f 518/670/486 517/669/485 532/693/507 533/695/509
f 526/672/488 525/671/487 540/694/508 541/696/510
f 519/673/489 518/670/486 533/695/509 534/697/511
f 527/674/490 526/672/488 541/696/510 542/698/512
f 520/675/491 519/673/489 534/697/511 535/699/513
f 513/677/492 85/700/77 528/701/514
f 92/702/79 527/674/490 542/698/512
f 521/679/493 520/675/491 535/699/513 536/686/500
f 514/680/494 513/677/492 528/701/514 529/688/502
f 541/696/510 540/694/508 555/703/515 556/704/516
f 534/697/511 533/695/509 548/705/517 549/706/518
f 542/698/512 541/696/510 556/704/516 557/707/519
f 535/699/513 534/697/511 549/706/518 550/708/520
f 528/701/514 85/709/77 543/710/521
f 92/711/79 542/698/512 557/707/519
f 536/686/500 535/699/513 550/708/520 551/712/522
f 529/688/502 528/701/514 543/710/521 544/713/523
f 537/687/501 536/686/500 551/712/522 552/714/524
f 530/689/503 529/688/502 544/713/523 545/715/525
f 538/690/504 537/687/501 552/714/524 553/716/526
f 531/691/505 530/689/503 545/715/525 546/717/527
f 539/692/506 538/690/504 553/716/526 554/718/528
f 532/693/507 531/691/505 546/717/527 547/719/529
f 540/694/508 539/692/506 554/718/528 555/703/515
f 533/695/509 532/693/507 547/719/529 548/705/517
f 545/715/525 544/713/523 559/168/53 86/167/52
f 553/716/526 552/714/524 562/163/48 91/171/56
f 546/717/527 545/715/525 86/167/52 560/173/58
f 554/718/528 553/716/526 91/171/56 563/175/60
f 547/719/529 546/717/527 560/173/58 87/177/62
f 555/703/515 554/718/528 563/175/60 564/179/64
f 548/705/517 547/719/529 87/177/62 561/181/66
f 556/704/516 555/703/515 564/179/64 565/183/68
f 549/706/518 548/705/517 561/181/66 88/185/70
f 557/707/519 556/704/516 565/183/68 566/187/72
f 550/708/520 549/706/518 88/185/70 89/189/74
f 543/710/521 85/720/77 558/191/76
f 92/721/79 557/707/519 566/187/72
f 551/712/522 550/708/520 89/189/74 90/164/49
f 544/713/523 543/710/521 558/191/76 559/168/53
f 552/714/524 551/712/522 90/164/49 562/163/48
